<?xml version="1.0" encoding="utf-8"?>
<!-- Generator: Adobe Illustrator 16.0.4, SVG Export Plug-In . SVG Version: 6.00 Build 0)  -->
<!DOCTYPE svg PUBLIC "-//W3C//DTD SVG 1.1//EN" "http://www.w3.org/Graphics/SVG/1.1/DTD/svg11.dtd">
<svg version="1.1" id="Layer_1" xmlns="http://www.w3.org/2000/svg" xmlns:xlink="http://www.w3.org/1999/xlink" x="0px" y="0px"
	 width="348.167px" height="112.289px" viewBox="0 0 348.167 112.289" enable-background="new 0 0 348.167 112.289"
	 xml:space="preserve">
<path fill="#FFFFFF" d="M97.391,0.031V25.77c-13.53-1.621-26.896-3.053-41.673-3.286c-2.31-0.036-4.694-0.056-7.041-0.056
	c-2.347,0-4.62,0.02-6.93,0.056C26.896,22.719,12.834,24.149,0,25.799V0c12.449,2.24,26.988,3.887,41.838,4.121
	c2.31,0.038,4.492,0.056,6.839,0.056c2.329,0,4.804-0.018,7.095-0.056C70.55,3.888,83.989,2.529,97.391,0.031 M0,68.173V32.678
	l5.299-1.07v-3.184c12.21-2.568,27.776-4.488,43.378-4.488c15.584,0,30.252,1.746,43.416,4.488v3.184l5.298,1.07v35.468
	c-13.402-2.804-26.841-3.862-41.619-4.098c-2.291-0.033-4.766-0.053-7.095-0.053c-2.347,0-4.529,0.02-6.839,0.053
	C26.988,64.286,12.926,65.479,0,68.173 M48.677,47.402c2.439,0,4.675,0.624,6.857,1.773v-5.102
	c-2.218-0.799-4.455-1.225-6.857-1.225c-2.42,0-4.84,0.426-7.059,1.225v5.102C43.8,48.027,46.239,47.402,48.677,47.402
	 M48.677,31.455c-10.139,0-19.617,1.519-27.812,4.175v5.282l5.481-1.105v-3.29c6.729-2.128,14.301-3.371,22.331-3.371
	c8.031,0,15.639,1.243,22.35,3.371v3.29l5.5,1.105V35.63C68.313,32.974,58.798,31.455,48.677,31.455 M10.285,30.88v5.867
	l5.501-1.108v-3.223c9.662-2.692,20.919-4.171,32.891-4.171c11.972,0,23.175,1.479,32.837,4.171v3.223l5.5,1.108V30.88
	c-11.239-2.813-24.329-4.212-38.337-4.212C34.651,26.668,21.525,28.067,10.285,30.88 M48.677,36.761
	c-6.215,0-12.082,1.071-17.362,2.983v5.11l5.5-1.11v-3.092c3.685-1.394,7.664-2.158,11.862-2.158c4.18,0,8.214,0.764,11.899,2.158
	v3.092l5.482,1.11v-5.11C60.797,37.832,54.874,36.761,48.677,36.761"/>
<path fill="#FFFFFF" d="M118.475,56.773c0,4.308,1.137,6.375,2.567,7.762c2.109,1.977,5.079,2.093,6.087,2.093
	c1.742,0,3.961-0.292,6.087-2.185c2.347-2.092,2.714-5.635,2.714-8.822v-3.156c0-4.604,0-5.429,0.055-6.376
	c0.055-1.032,0.293-1.532,1.1-1.681c0.348-0.089,0.513-0.089,0.733-0.089l0.238-0.179c0-0.174-0.146-0.232-0.476-0.232
	c-0.899,0-2.274,0.086-2.476,0.086c-0.182,0-1.814-0.086-3.134-0.086c-0.33,0-0.477,0.058-0.477,0.232l0.238,0.179
	c0.257,0,0.77,0.031,1.009,0.089c0.971,0.204,1.21,0.679,1.265,1.681c0.055,0.947,0.055,1.772,0.055,6.376v3.688
	c0,3.041-0.349,5.548-1.705,7.231c-1.064,1.269-2.842,2.123-4.64,2.123c-1.686,0-3.006-0.262-4.454-1.622
	c-1.265-1.209-2.219-3.037-2.219-7.292v-4.128c0-4.604,0-5.429,0.073-6.376c0.055-1.032,0.294-1.563,1.082-1.681
	c0.367-0.058,0.532-0.089,0.734-0.089l0.238-0.179c0-0.174-0.147-0.232-0.458-0.232c-0.899,0-2.659,0.086-2.934,0.086
	c-0.256,0-2.071-0.086-3.392-0.086c-0.329,0-0.476,0.058-0.476,0.232l0.238,0.179c0.275,0,0.77,0.031,1.008,0.089
	c0.972,0.204,1.211,0.679,1.266,1.681c0.054,0.947,0.054,1.772,0.054,6.376V56.773L118.475,56.773z"/>
<path fill="#FFFFFF" d="M144.602,48.068c0.935,1.06,4.271,4.781,7.7,8.469c3.117,3.363,7.371,7.703,7.701,7.998
	c1.557,1.562,1.925,1.889,2.145,1.889c0.219,0,0.274-0.148,0.274-2.097l0.056-17.291c0-1.775,0.11-2.424,1.1-2.628
	c0.348-0.089,0.549-0.089,0.696-0.089c0.221,0,0.33-0.089,0.33-0.208c0-0.176-0.201-0.203-0.532-0.203
	c-1.209,0-2.181,0.086-2.512,0.086c-0.329,0-1.741-0.086-3.061-0.086c-0.367,0-0.587,0.027-0.587,0.203
	c0,0.119,0.019,0.208,0.22,0.208c0.239,0,0.935,0.031,1.449,0.146c0.916,0.237,1.118,0.888,1.155,2.805l0.33,14.994
	c-0.954-0.975-4.162-4.578-7.077-7.704c-4.547-4.872-8.947-9.62-9.387-10.122c-0.294-0.298-0.807-0.945-1.046-0.945
	c-0.219,0-0.311,0.323-0.311,1.478l-0.037,16.906c0,2.688-0.146,3.54-0.88,3.749c-0.458,0.147-0.971,0.179-1.21,0.179l-0.238,0.174
	c0,0.207,0.165,0.238,0.477,0.238c1.32,0,2.566-0.086,2.823-0.086c0.275,0,1.448,0.086,3.135,0.086c0.349,0,0.532-0.059,0.532-0.238
	l-0.238-0.174c-0.275,0-0.917-0.031-1.486-0.179c-0.788-0.235-1.081-1.002-1.136-3.423L144.602,48.068z"/>
<path fill="#FFFFFF" d="M173.515,52.465c0-4.604,0-5.429,0.055-6.376c0.055-1.032,0.293-1.532,1.1-1.681
	c0.35-0.058,0.533-0.089,0.733-0.089l0.239-0.179c0-0.174-0.146-0.232-0.477-0.232c-0.88,0-2.75,0.086-2.897,0.086
	s-1.999-0.086-2.97-0.086c-0.331,0-0.477,0.058-0.477,0.232l0.239,0.179c0.201,0,0.586,0.031,0.916,0.119
	c0.642,0.146,0.935,0.649,0.99,1.651c0.074,0.947,0.074,1.772,0.074,6.376v5.192c0,2.834,0,5.163-0.147,6.407
	c-0.128,0.854-0.275,1.504-0.861,1.619c-0.257,0.061-0.624,0.121-0.881,0.121c-0.184,0-0.238,0.088-0.238,0.174
	c0,0.18,0.147,0.237,0.477,0.237c0.879,0,2.731-0.086,2.878-0.086s2.017,0.086,3.63,0.086c0.33,0,0.477-0.086,0.477-0.237
	c0-0.086-0.055-0.174-0.237-0.174c-0.257,0-0.916-0.062-1.32-0.121c-0.879-0.115-1.063-0.766-1.155-1.619
	c-0.146-1.244-0.146-3.573-0.146-6.407L173.515,52.465L173.515,52.465z"/>
<path fill="#FFFFFF" d="M183.361,47.507c-0.441-1.15-0.789-2.066-0.789-2.45c0-0.206,0.055-0.445,0.385-0.592
	c0.256-0.115,0.789-0.146,1.119-0.146c0.201,0,0.293-0.059,0.293-0.208c0-0.145-0.257-0.203-0.789-0.203
	c-1.117,0-2.455,0.086-2.75,0.086c-0.348,0-2.035-0.086-3.447-0.086c-0.475,0-0.77,0.027-0.77,0.203
	c0,0.119,0.055,0.208,0.239,0.208c0.183,0,0.678,0,1.118,0.119c1.027,0.293,1.467,0.619,2.127,2.271l7.224,18.094
	c0.568,1.414,0.714,1.825,1.063,1.825c0.293,0,0.422-0.47,1.246-2.241c0.679-1.445,1.998-4.635,3.812-8.941
	c1.503-3.632,2.971-7.175,3.301-7.998c0.787-2.007,1.229-2.508,1.613-2.776c0.566-0.353,1.209-0.353,1.43-0.353
	s0.35-0.059,0.35-0.208c0-0.145-0.184-0.203-0.514-0.203c-0.845,0-2.108,0.086-2.291,0.086c-0.351,0-1.707-0.086-2.897-0.086
	c-0.459,0-0.642,0.058-0.642,0.232c0,0.149,0.146,0.179,0.312,0.179c0.33,0,0.771,0,1.138,0.119c0.293,0.146,0.383,0.442,0.383,0.68
	c0,0.264-0.127,0.678-0.273,1.12c-0.643,2.127-4.602,12.423-6.307,16.38L183.361,47.507z"/>
<path fill="#FFFFFF" d="M203.143,57.657c0,2.834,0,5.163-0.147,6.407c-0.127,0.854-0.273,1.504-0.861,1.619
	c-0.256,0.061-0.604,0.121-0.881,0.121c-0.183,0-0.236,0.088-0.236,0.174c0,0.18,0.146,0.237,0.479,0.237
	c0.879,0,2.75-0.086,2.896-0.086c0.843,0,2.821,0.175,7.276,0.175c1.154,0,1.396,0,1.597-0.767c0.146-0.62,0.385-2.63,0.385-2.863
	c0-0.204,0-0.442-0.185-0.442c-0.146,0-0.2,0.119-0.256,0.442c-0.201,1.209-0.567,1.802-1.34,2.127
	c-0.77,0.321-2.054,0.321-2.822,0.321c-2.896,0-3.336-0.381-3.428-2.42c-0.02-0.616,0-4.043,0-5.047v-2.595l0.201-0.207
	c0.514,0,3.43,0.061,4.235,0.145c1.136,0.121,1.411,0.621,1.54,1.036c0.109,0.385,0.109,0.678,0.109,0.977l0.2,0.264
	c0.201,0,0.201-0.326,0.201-0.562c0-0.207,0.056-1.3,0.129-1.888c0.073-0.975,0.238-1.478,0.238-1.652
	c0-0.178-0.073-0.236-0.165-0.236c-0.111,0-0.221,0.144-0.439,0.381c-0.258,0.295-0.68,0.357-1.375,0.414
	c-0.68,0.061-4.31,0.061-4.691,0.061c-0.147,0-0.184-0.09-0.184-0.296v-8.145c0-0.209,0.055-0.296,0.184-0.296
	c0.328,0,3.537,0.03,4.033,0.087c1.595,0.179,1.888,0.533,2.105,1.004c0.146,0.354,0.165,0.858,0.165,1.064
	c0,0.236,0.056,0.381,0.239,0.381l0.199-0.323c0.074-0.352,0.129-1.654,0.146-1.947c0.092-0.826,0.239-1.183,0.239-1.388
	l-0.111-0.264l-0.421,0.145c-0.238,0.059-0.697,0.119-1.266,0.15c-0.678,0.028-6.545,0.028-6.746,0.028
	c-0.147,0-2.018-0.086-3.338-0.086c-0.33,0-0.478,0.058-0.478,0.232l0.238,0.179c0.257,0,0.771,0.031,1.009,0.089
	c0.953,0.204,1.21,0.679,1.266,1.681c0.056,0.947,0.056,1.772,0.056,6.376v5.192L203.143,57.657L203.143,57.657z"/>
<path fill="#FFFFFF" d="M222.707,45.382c0-0.178,0.092-0.295,0.237-0.354c0.293-0.088,1.101-0.177,1.979-0.177
	c3.152,0,5.098,2.21,5.098,5.901c0,2.244-0.77,3.837-1.797,4.547c-0.68,0.47-1.504,0.561-2.219,0.561
	c-1.283,0-2.658-0.207-3.101-0.475l-0.2-0.356v-9.647H222.707L222.707,45.382z M220.339,57.657c0,2.834,0,5.163-0.146,6.407
	c-0.107,0.854-0.257,1.504-0.844,1.619c-0.273,0.061-0.623,0.121-0.896,0.121c-0.166,0-0.238,0.088-0.238,0.174
	c0,0.18,0.164,0.237,0.477,0.237c0.88,0,2.75-0.086,2.787-0.086c0.146,0,1.998,0.086,3.611,0.086c0.33,0,0.478-0.086,0.478-0.237
	c0-0.086-0.055-0.174-0.239-0.174c-0.257,0-0.896-0.062-1.317-0.121c-0.882-0.115-1.063-0.766-1.155-1.619
	c-0.146-1.244-0.146-3.573-0.146-6.407v-0.708l0.201-0.235l3.648,0.06c0.164,0,0.256,0.058,0.365,0.177
	c0.604,0.768,1.979,2.745,3.228,4.368c1.668,2.216,2.714,3.658,3.979,4.34c0.769,0.412,1.502,0.56,3.152,0.56h2.106
	c0.53,0,0.696-0.059,0.696-0.237l-0.258-0.174c-0.184,0-0.586,0-1.152-0.091c-0.734-0.116-1.999-0.44-3.596-2.123
	c-1.724-1.832-3.723-4.457-6.143-7.556c2.658-2.449,3.575-4.637,3.575-6.817c0-2.037-1.302-3.481-2.054-4.015
	c-1.56-1.122-3.539-1.296-5.393-1.296c-0.916,0-3.15,0.086-3.48,0.086c-0.147,0-2.02-0.086-3.338-0.086
	c-0.33,0-0.478,0.058-0.478,0.232l0.237,0.179c0.273,0,0.771,0.031,1.009,0.089c0.974,0.204,1.21,0.679,1.267,1.681
	c0.055,0.947,0.055,1.772,0.055,6.376v5.191H220.339z"/>
<path fill="#FFFFFF" d="M243.276,66.628c1.595,0,3.19-0.353,4.455-1.237c2.036-1.445,2.513-3.688,2.513-4.898
	c0-2.362-0.824-4.191-4.309-6.935l-0.825-0.646c-2.769-2.275-3.61-3.278-3.61-4.961c0-2.153,1.611-3.423,3.629-3.423
	c2.731,0,3.521,1.241,3.703,1.563c0.166,0.325,0.351,1.123,0.387,1.475c0.019,0.238,0.056,0.385,0.221,0.385
	c0.164,0,0.221-0.207,0.221-0.679c0-2.009,0.109-2.981,0.109-3.13c0-0.146-0.057-0.205-0.294-0.205
	c-0.238,0-0.478-0.027-1.026-0.144c-0.752-0.182-1.596-0.298-2.75-0.298c-3.74,0-6.104,2.155-6.104,5.312
	c0,2.005,0.695,3.835,3.832,6.402l1.318,1.093c2.549,2.098,3.409,3.274,3.409,5.315c0,1.887-1.393,3.924-4.233,3.924
	c-1.963,0-3.924-0.829-4.362-3.015c-0.093-0.412-0.093-0.823-0.093-1.09c0-0.235-0.021-0.324-0.201-0.324
	c-0.146,0-0.202,0.147-0.238,0.472c-0.037,0.476-0.146,1.655-0.146,3.128c0,0.797,0.037,0.916,0.459,1.124
	C240.526,66.424,241.882,66.628,243.276,66.628"/>
<path fill="#FFFFFF" d="M259.19,52.465c0-4.604,0-5.429,0.074-6.376c0.055-1.032,0.293-1.532,1.082-1.681
	c0.348-0.058,0.53-0.089,0.731-0.089l0.237-0.179c0-0.174-0.146-0.232-0.478-0.232c-0.881,0-2.73,0.086-2.879,0.086
	c-0.146,0-2.018-0.086-2.986-0.086c-0.33,0-0.479,0.058-0.479,0.232l0.237,0.179c0.202,0,0.587,0.031,0.917,0.119
	c0.643,0.146,0.953,0.649,1.008,1.651c0.057,0.947,0.057,1.772,0.057,6.376v5.192c0,2.834,0,5.163-0.146,6.407
	c-0.129,0.854-0.272,1.504-0.86,1.619c-0.258,0.061-0.604,0.121-0.881,0.121c-0.184,0-0.236,0.088-0.236,0.174
	c0,0.18,0.146,0.237,0.476,0.237c0.88,0,2.751-0.086,2.897-0.086c0.146,0,1.998,0.086,3.63,0.086c0.312,0,0.459-0.086,0.459-0.237
	c0-0.086-0.056-0.174-0.222-0.174c-0.274,0-0.916-0.062-1.338-0.121c-0.882-0.115-1.062-0.766-1.154-1.619
	c-0.147-1.244-0.147-3.573-0.147-6.407V52.465L259.19,52.465z"/>
<path fill="#FFFFFF" d="M273.71,45.177l3.539,0.058c2.821,0.059,3.502,0.738,3.631,1.621l0.018,0.326
	c0.037,0.411,0.092,0.501,0.238,0.501c0.109,0,0.201-0.119,0.201-0.382c0-0.324,0.093-3.307,0.093-3.307h-3.062h-10.873
	c-0.365,0-1.483-0.059-2.328-0.147c-0.808-0.056-1.102-0.354-1.301-0.354c-0.131,0-0.238,0.382-0.296,0.562
	c-0.071,0.234-0.659,2.772-0.659,3.067c0,0.179,0.057,0.266,0.146,0.266c0.109,0,0.22-0.059,0.293-0.296
	c0.092-0.205,0.184-0.412,0.516-0.913c0.457-0.709,1.172-0.918,3.008-0.944l4.36-0.058v12.48c0,2.834,0,5.163-0.146,6.407
	c-0.11,0.854-0.274,1.504-0.861,1.619c-0.257,0.061-0.605,0.121-0.881,0.121c-0.184,0-0.238,0.088-0.238,0.174
	c0,0.18,0.146,0.237,0.479,0.237c0.879,0,2.75-0.086,2.879-0.086c0.164,0,2.017,0.086,3.646,0.086c0.312,0,0.458-0.086,0.458-0.237
	c0-0.086-0.055-0.174-0.22-0.174c-0.275,0-0.916-0.062-1.338-0.121c-0.881-0.115-1.064-0.766-1.155-1.619
	c-0.146-1.244-0.146-3.573-0.146-6.407v-12.48H273.71z"/>
<path fill="#FFFFFF" d="M289.405,61.141c0,0.476,0,1.715-0.091,2.957c-0.055,0.857-0.331,1.51-0.917,1.627
	c-0.257,0.061-0.624,0.118-0.88,0.118c-0.184,0-0.239,0.089-0.239,0.179c0,0.177,0.147,0.235,0.478,0.235
	c0.882,0,2.75-0.086,2.896-0.086s2.018,0.086,3.631,0.086c0.329,0,0.477-0.086,0.477-0.235c0-0.09-0.057-0.179-0.236-0.179
	c-0.257,0-0.917-0.059-1.32-0.118c-0.896-0.117-1.154-0.77-1.229-1.627c-0.094-1.242-0.094-2.481-0.094-2.957v-2.543
	c0-0.974,0-1.893,0.459-2.958c0.531-1.273,4.676-8.219,5.646-9.406c0.66-0.795,0.973-1.149,1.561-1.508
	c0.478-0.292,1.045-0.415,1.375-0.415c0.236,0,0.365-0.086,0.365-0.233c0-0.122-0.164-0.178-0.365-0.178
	c-0.568,0-2.694,0.089-2.881,0.089c-0.235,0-1.188-0.089-1.94-0.089c-0.293,0-0.479,0.056-0.479,0.178
	c0,0.147,0.187,0.206,0.441,0.294c0.365,0.09,0.477,0.412,0.477,0.828c0,0.384-0.108,0.886-0.514,1.509
	c-0.587,0.976-4.345,7.453-4.896,8.695c-0.53-0.858-4.969-8.486-5.442-9.346c-0.239-0.443-0.388-0.799-0.388-1.155
	c0-0.235,0.146-0.412,0.388-0.531c0.256-0.116,0.438-0.147,0.438-0.266c0-0.117-0.057-0.206-0.386-0.206
	c-1.155,0-3.044,0.094-3.245,0.094h-1.705c-0.273,0-0.386-0.005-0.386,0.112l0.293,0.205c0.257,0,0.644,0.18,1.082,0.473
	c0.532,0.358,1.009,1.095,1.742,2.193c1.045,1.535,5.005,8.045,5.207,8.514c0.385,0.86,0.679,1.509,0.679,3.106L289.405,61.141
	L289.405,61.141z"/>
<path fill="#FFFFFF" d="M121.519,3.859c0-0.228,0.129-0.38,0.312-0.455c0.366-0.112,1.393-0.231,2.53-0.231
	c4.052,0,6.545,2.842,6.545,7.578c0,2.874-0.972,4.919-2.31,5.828c-0.862,0.603-1.925,0.721-2.823,0.721
	c-1.669,0-3.411-0.266-3.979-0.609c-0.202-0.112-0.275-0.264-0.275-0.453V3.859z M118.494,19.611c0,3.634,0,6.623-0.184,8.214
	c-0.165,1.098-0.348,1.93-1.1,2.081c-0.348,0.075-0.806,0.152-1.136,0.152c-0.239,0-0.312,0.116-0.312,0.228
	c0,0.227,0.202,0.304,0.605,0.304c1.155,0,3.52-0.117,3.575-0.117c0.183,0,2.567,0.117,4.657,0.117c0.403,0,0.605-0.117,0.605-0.304
	c0-0.112-0.091-0.228-0.311-0.228c-0.349,0-1.174-0.077-1.706-0.152c-1.136-0.151-1.356-0.983-1.466-2.081
	c-0.202-1.591-0.202-4.58-0.202-8.214v-0.909c0-0.19,0.073-0.306,0.275-0.306l4.657,0.077c0.22,0,0.33,0.077,0.477,0.229
	c0.769,0.981,2.548,3.52,4.143,5.601c2.163,2.84,3.483,4.694,5.115,5.566c0.972,0.53,1.925,0.721,4.034,0.721h2.695
	c0.678,0,0.917-0.077,0.917-0.304c0-0.112-0.165-0.228-0.349-0.228c-0.22,0-0.751,0-1.485-0.113c-0.935-0.15-2.566-0.569-4.62-2.725
	c-2.182-2.35-4.767-5.72-7.865-9.695c3.41-3.142,4.583-5.944,4.583-8.746c0-2.612-1.668-4.466-2.622-5.148
	c-1.998-1.439-4.546-1.668-6.93-1.668c-1.155,0-4.052,0.114-4.455,0.114c-0.202,0-2.567-0.114-4.29-0.114
	c-0.403,0-0.605,0.077-0.605,0.302l0.311,0.23c0.33,0,0.972,0.036,1.284,0.113c1.246,0.266,1.558,0.871,1.632,2.158
	c0.073,1.212,0.073,2.272,0.073,8.175V19.611z"/>
<path fill="#FFFFFF" d="M141.485,3.913c-0.183,0-0.293,0.032-0.33,0.179l-0.239,0.738c-0.018,0.174,0.092,0.206,0.294,0.206h6.948
	l0.257-0.175l0.239-0.652c0.055-0.147,0-0.296-0.239-0.296H141.485z M145.885,16.812c0-4.604,0-5.431,0.055-6.377
	c0.055-1.032,0.294-1.532,1.082-1.681c0.367-0.059,0.532-0.088,0.751-0.088l0.221-0.178c0-0.178-0.129-0.237-0.459-0.237
	c-0.88,0-2.75,0.092-2.897,0.092c-0.146,0-1.998-0.092-2.97-0.092c-0.33,0-0.476,0.059-0.476,0.237l0.238,0.178
	c0.201,0,0.587,0.029,0.916,0.119c0.642,0.147,0.936,0.649,0.991,1.65c0.073,0.946,0.073,1.773,0.073,6.377v5.194
	c0,2.833,0,5.163-0.165,6.404c-0.11,0.854-0.257,1.503-0.843,1.623c-0.275,0.06-0.624,0.117-0.899,0.117
	c-0.165,0-0.22,0.09-0.22,0.178c0,0.177,0.147,0.236,0.459,0.236c0.898,0,2.75-0.091,2.896-0.091c0.147,0,2.017,0.091,3.631,0.091
	c0.33,0,0.476-0.091,0.476-0.236c0-0.088-0.055-0.178-0.238-0.178c-0.275,0-0.917-0.057-1.32-0.117
	c-0.898-0.12-1.064-0.769-1.155-1.623c-0.147-1.241-0.147-3.571-0.147-6.404V16.812L145.885,16.812z"/>
<path fill="#FFFFFF" d="M168.125,28.054c0,0.505-0.202,0.827-0.587,1.034c-0.77,0.442-2.292,0.622-3.355,0.622
	c-2.714,0-5.409-0.887-7.737-3.159c-1.045-1.007-3.136-4.013-3.136-8.175c0-3.453,1.211-6.14,2.934-7.497
	c2.237-1.773,4.455-1.947,6.307-1.947c3.813,0,6.197,1.268,6.93,2.393c0.44,0.705,0.605,1.532,0.624,1.946
	c0.036,0.264,0.055,0.444,0.201,0.444c0.22,0,0.275-0.15,0.275-0.621c0-2.952,0.202-3.779,0.202-4.191
	c0-0.118-0.055-0.237-0.348-0.266c-0.734-0.032-1.779-0.149-2.383-0.294c-0.569-0.121-2.66-0.502-4.529-0.502
	c-2.274,0-5.189,0.205-7.848,1.855c-2.621,1.658-4.932,4.991-4.932,9.716c0,3.687,1.724,6.844,3.521,8.406
	c3.281,2.861,7.462,3.162,9.699,3.162c1.723,0,4.381-0.326,6.27-1.329c0.348-0.209,0.385-0.269,0.385-1.597v-3.303
	c0-1.238,0-2.125,0.055-3.07c0.055-1.034,0.293-1.536,1.082-1.681c0.366-0.06,0.531-0.09,0.751-0.09l0.239-0.178
	c0-0.178-0.165-0.236-0.477-0.236c-0.898,0-2.75,0.09-2.896,0.09c-0.148,0-1.999-0.09-3.338-0.09c-0.33,0-0.476,0.058-0.476,0.236
	l0.238,0.178c0.275,0,0.77,0.03,1.009,0.09c1.173,0.321,1.32,0.647,1.32,3.036V28.054L168.125,28.054z"/>
<path fill="#FFFFFF" d="M179.546,20.794l-0.092-0.204l2.604-7.969c0.146-0.444,0.293-0.444,0.438,0l2.808,7.969l-0.111,0.204
	H179.546z M175.421,27.319c-0.531,1.472-1.118,2.594-2.493,2.774c-0.22,0.027-0.642,0.057-0.843,0.057l-0.275,0.178
	c0,0.177,0.183,0.236,0.568,0.236c1.393,0,3.006-0.091,3.336-0.091s1.596,0.091,2.291,0.091c0.277,0,0.459-0.059,0.459-0.236
	c0-0.118-0.092-0.178-0.312-0.178h-0.293c-0.494,0-1.117-0.264-1.117-0.857c0-0.529,0.146-1.239,0.422-1.974l1.76-5.224l0.312-0.24
	h6.345l0.256,0.18l2.75,7.258c0.164,0.475,0,0.74-0.184,0.8l-0.201,0.207c0,0.173,0.33,0.173,0.879,0.205
	c2.037,0.059,4.199,0.059,4.639,0.059c0.33,0,0.589-0.059,0.589-0.236c0-0.149-0.129-0.178-0.294-0.178
	c-0.295,0-0.733-0.03-1.174-0.178c-0.623-0.177-1.484-0.649-2.549-3.272c-1.797-4.487-6.436-16.675-6.875-17.797
	c-0.349-0.917-0.478-1.062-0.642-1.062c-0.185,0-0.294,0.176-0.66,1.151L175.421,27.319z"/>
<path fill="#FFFFFF" d="M207.488,31.12c2.055,0,4.107-0.457,5.721-1.592c2.621-1.853,3.229-4.73,3.229-6.283
	c0-3.033-1.062-5.381-5.537-8.899l-1.045-0.832c-3.575-2.918-4.62-4.206-4.62-6.361c0-2.766,2.035-4.393,4.657-4.393
	c3.482,0,4.49,1.588,4.729,2.006c0.221,0.417,0.439,1.441,0.494,1.894c0.037,0.303,0.074,0.493,0.293,0.493
	c0.202,0,0.275-0.267,0.275-0.874c0-2.576,0.146-3.823,0.146-4.014c0-0.188-0.072-0.26-0.387-0.26c-0.293,0-0.604-0.042-1.318-0.191
	c-0.953-0.229-2.035-0.379-3.521-0.379c-4.805,0-7.829,2.763-7.829,6.815c0,2.574,0.897,4.923,4.913,8.216l1.706,1.398
	c3.245,2.69,4.345,4.204,4.345,6.817c0,2.423-1.775,5.04-5.408,5.04c-2.529,0-5.041-1.064-5.609-3.865
	c-0.11-0.528-0.11-1.058-0.11-1.4c0-0.303-0.036-0.415-0.257-0.415c-0.201,0-0.275,0.187-0.311,0.605
	c-0.037,0.605-0.186,2.12-0.186,4.011c0,1.024,0.037,1.177,0.568,1.438C203.968,30.856,205.727,31.12,207.488,31.12"/>
<path fill="#FFFFFF" d="M227.544,9.522l3.723,0.059c2.842,0.059,3.521,0.737,3.63,1.622l0.037,0.325
	c0.019,0.415,0.092,0.502,0.239,0.502c0.106,0,0.201-0.117,0.201-0.383c0-0.322,0.092-2.361,0.092-3.245c0-0.18,0-0.356-0.146-0.356
	c-0.238,0-1.046,0.297-2.936,0.297H221.33c-0.365,0-1.482-0.06-2.326-0.147c-0.809-0.06-1.102-0.355-1.303-0.355
	c-0.129,0-0.238,0.381-0.293,0.561c-0.056,0.235-0.66,2.772-0.66,3.069c0,0.176,0.072,0.264,0.146,0.264
	c0.128,0,0.221-0.059,0.293-0.294c0.091-0.209,0.184-0.415,0.514-0.914c0.479-0.712,1.174-0.915,3.008-0.946l4.361-0.059v12.484
	c0,2.833,0,5.163-0.146,6.404c-0.108,0.854-0.256,1.503-0.86,1.623c-0.257,0.06-0.604,0.117-0.88,0.117
	c-0.165,0-0.238,0.09-0.238,0.178c0,0.177,0.146,0.236,0.479,0.236c0.896,0,2.75-0.091,2.896-0.091c0.147,0,1.999,0.091,3.63,0.091
	c0.33,0,0.479-0.091,0.479-0.236c0-0.088-0.073-0.178-0.238-0.178c-0.274,0-0.917-0.057-1.338-0.117
	c-0.881-0.12-1.063-0.769-1.156-1.623c-0.146-1.241-0.146-3.571-0.146-6.404V9.522H227.544z"/>
<path fill="#FFFFFF" d="M258.273,30.15c-0.184,0-0.587,0-1.154-0.088c-0.423-0.07-1.062-0.213-1.834-0.668l-0.109,0.01
	c-0.459-0.081-1.869-1.709-1.869-1.709c-1.668-1.815-3.612-4.347-5.924-7.314c2.66-2.447,3.576-4.631,3.57-6.816
	c0-2.037-1.302-3.482-2.035-4.014c-1.558-1.12-3.537-1.3-5.407-1.3c-0.916,0-3.153,0.092-3.483,0.092
	c-0.146,0-1.998-0.092-3.336-0.092c-0.312,0-0.459,0.059-0.459,0.237l0.237,0.178c0.258,0,0.753,0.029,0.989,0.088
	c0.974,0.209,1.211,0.68,1.267,1.681c0.073,0.946,0.073,1.773,0.073,6.377v5.194c0,2.833,0,5.163-0.146,6.404
	c-0.128,0.854-0.273,1.503-0.859,1.623c-0.276,0.06-0.623,0.117-0.881,0.117c-0.184,0-0.238,0.09-0.238,0.178
	c0,0.177,0.146,0.236,0.478,0.236c0.88,0,2.731-0.091,2.769-0.091c0.147,0,2,0.091,3.631,0.091c0.33,0,0.478-0.091,0.478-0.236
	c0-0.088-0.071-0.178-0.237-0.178c-0.275,0-0.916-0.057-1.338-0.117c-0.882-0.12-1.062-0.769-1.154-1.623
	c-0.147-1.241-0.147-3.571-0.147-6.404v-0.71l0.22-0.234L245,21.12c0.164,0,0.256,0.061,0.385,0.176
	c0.587,0.768,1.979,2.747,3.207,4.367c1.688,2.215,2.716,3.66,3.979,4.342c0.771,0.409,1.522,0.559,3.173,0.559h2.092
	c0.531,0,0.694-0.059,0.694-0.236L258.273,30.15z M246.667,19.645c-0.681,0.47-1.504,0.559-2.199,0.559
	c-1.301,0-2.659-0.204-3.1-0.472l-0.222-0.354V9.73h0.001c0-0.179,0.094-0.296,0.239-0.358c0.293-0.086,1.1-0.175,1.979-0.175
	c3.172,0,5.114,2.215,5.114,5.901C248.482,17.345,247.712,18.937,246.667,19.645z"/>
<path fill="#FFFFFF" d="M274.996,30.15c-0.293,0-0.732-0.03-1.174-0.178c-0.623-0.177-1.484-0.649-2.549-3.272
	c-1.797-4.487-6.436-16.675-6.875-17.797c-0.348-0.917-0.458-1.062-0.641-1.062c-0.187,0-0.295,0.176-0.645,1.151l-6.71,18.327
	c-0.056,0.173-0.129,0.347-0.185,0.512c-0.219,0.561-0.586,1.408-0.897,1.555c-0.366,0.377-0.807,0.63-1.392,0.707
	c-0.239,0.027,2.455,0.38,2.77,0.38c0.329,0,1.596,0.091,2.311,0.091c0.256,0,0.439-0.059,0.439-0.236
	c0-0.118-0.094-0.178-0.295-0.178h-0.294c-0.513,0-1.116-0.264-1.116-0.857c0-0.529,0.146-1.239,0.402-1.974l1.759-5.224l0.312-0.24
	h6.345l0.257,0.18l2.75,7.258c0.184,0.475,0,0.74-0.186,0.8l-0.199,0.207c0,0.173,0.33,0.173,0.88,0.205
	c2.054,0.059,4.199,0.059,4.64,0.059c0.33,0,0.586-0.059,0.586-0.236C275.289,30.179,275.18,30.15,274.996,30.15z M266.177,20.794
	h-5.648l-0.072-0.204l2.586-7.969c0.146-0.444,0.293-0.444,0.438,0l2.808,7.969L266.177,20.794z"/>
<path fill="#FFFFFF" d="M279.138,16.339c0-2.272,0-5.281,0.018-6.285c0-0.324,0.094-0.473,0.35-0.591
	c0.238-0.117,1.34-0.207,1.927-0.207c3.521,0,6.875,0.411,9.644,3.335c1.211,1.267,2.844,3.689,2.844,7.439
	c0,2.713-0.826,5.548-2.365,7.05c-1.742,1.743-4.271,2.747-7.021,2.747c-3.482,0-4.639-0.621-5.023-1.181
	c-0.221-0.326-0.293-1.507-0.311-2.244c-0.037-0.559-0.056-3.276-0.056-6.402v-3.661H279.138z M276.645,22.006
	c0,2.833,0,5.163-0.146,6.404c-0.11,0.854-0.258,1.503-0.846,1.623c-0.273,0.06-0.624,0.117-0.896,0.117
	c-0.187,0-0.238,0.09-0.238,0.178c0,0.177,0.146,0.236,0.477,0.236c0.898,0,2.75-0.091,2.896-0.091c0.294,0,4.016,0.357,6.546,0.357
	c5.022,0,7.681-2.066,8.946-3.396c1.648-1.74,3.188-4.603,3.188-8.321c0-3.509-1.393-5.957-2.858-7.495
	c-3.521-3.632-8.91-3.367-11.844-3.367c-1.779,0-3.632,0.092-3.979,0.092c-0.146,0-1.998-0.092-3.337-0.092
	c-0.33,0-0.477,0.059-0.477,0.237l0.236,0.178c0.256,0,0.771,0.029,1.009,0.088c0.974,0.209,1.21,0.68,1.267,1.681
	c0.056,0.946,0.056,1.773,0.056,6.377V22.006L276.645,22.006z"/>
<path fill="#FFFFFF" d="M304.109,16.812c0-4.604,0-5.431,0.055-6.377c0.058-1.032,0.295-1.532,1.103-1.681
	c0.351-0.059,0.513-0.088,0.733-0.088l0.236-0.178c0-0.178-0.165-0.237-0.477-0.237c-0.881,0-2.75,0.092-2.897,0.092
	c-0.146,0-1.997-0.092-2.97-0.092c-0.33,0-0.477,0.059-0.477,0.237l0.236,0.178c0.202,0,0.588,0.029,0.917,0.119
	c0.644,0.147,0.937,0.649,0.99,1.65c0.071,0.946,0.071,1.773,0.071,6.377v5.194c0,2.833,0,5.163-0.164,6.404
	c-0.109,0.854-0.258,1.503-0.844,1.623c-0.274,0.06-0.623,0.117-0.881,0.117c-0.184,0-0.238,0.09-0.238,0.178
	c0,0.177,0.146,0.236,0.459,0.236c0.897,0,2.75-0.091,2.896-0.091s2.02,0.091,3.633,0.091c0.327,0,0.477-0.091,0.477-0.236
	c0-0.088-0.057-0.178-0.238-0.178c-0.257,0-0.917-0.057-1.32-0.117c-0.898-0.12-1.062-0.769-1.154-1.623
	c-0.146-1.241-0.146-3.571-0.146-6.404L304.109,16.812L304.109,16.812z"/>
<path fill="#FFFFFF" d="M313.643,12.415c0.935,1.062,4.271,4.78,7.7,8.469c3.117,3.362,7.371,7.704,7.701,7.997
	c1.558,1.564,1.924,1.891,2.145,1.891s0.275-0.149,0.275-2.1l0.055-17.291c0-1.769,0.128-2.418,1.1-2.627
	c0.35-0.088,0.551-0.088,0.696-0.088c0.203,0,0.33-0.09,0.33-0.204c0-0.179-0.201-0.211-0.531-0.211
	c-1.21,0-2.182,0.092-2.512,0.092c-0.312,0-1.742-0.092-3.062-0.092c-0.35,0-0.588,0.032-0.588,0.211
	c0,0.114,0.021,0.204,0.238,0.204c0.238,0,0.917,0.029,1.432,0.147c0.916,0.236,1.137,0.883,1.153,2.805l0.33,14.992
	c-0.953-0.974-4.162-4.575-7.077-7.705c-4.547-4.867-8.945-9.619-9.387-10.12c-0.293-0.297-0.809-0.944-1.045-0.944
	c-0.221,0-0.312,0.323-0.312,1.474l-0.035,16.913c0,2.684-0.146,3.54-0.881,3.744c-0.441,0.148-0.973,0.178-1.211,0.178
	l-0.238,0.178c0,0.205,0.166,0.236,0.479,0.236c1.318,0,2.566-0.091,2.822-0.091c0.273,0,1.449,0.091,3.137,0.091
	c0.35,0,0.529-0.059,0.529-0.236l-0.236-0.178c-0.273,0-0.917-0.03-1.484-0.178c-0.787-0.235-1.08-1.001-1.138-3.421L313.643,12.415
	z"/>
<path fill="#FFFFFF" d="M320.903,30.399c0.202,1.053,0.423,2.107,0.423,3.183c0,1.098-0.423,2.035-0.423,2.175l0.257,0.212
	c0.166,0,0.68-0.397,1.357-1.848c0.365-0.793,0.678-2.411,0.678-3.043v-0.679c0,0,0.02-0.227-0.257-0.227h-1.76
	C320.884,30.172,320.903,30.399,320.903,30.399"/>
<path fill="#FFFFFF" d="M341.181,30.967c1.595,0,3.189-0.353,4.473-1.241c2.035-1.448,2.514-3.694,2.514-4.908
	c0-2.363-0.844-4.196-4.326-6.945l-0.825-0.652c-2.771-2.276-3.61-3.279-3.61-4.965c0-2.158,1.596-3.431,3.647-3.431
	c2.713,0,3.521,1.242,3.685,1.568c0.186,0.325,0.367,1.126,0.387,1.48c0.037,0.234,0.071,0.383,0.237,0.383
	c0.146,0,0.201-0.209,0.201-0.678c0-2.012,0.128-2.987,0.128-3.134s-0.072-0.207-0.293-0.207c-0.236,0-0.477-0.031-1.045-0.147
	c-0.732-0.179-1.596-0.297-2.75-0.297c-3.76,0-6.104,2.156-6.104,5.322c0,2.007,0.694,3.842,3.832,6.414l1.338,1.093
	c2.529,2.097,3.393,3.283,3.393,5.32c0,1.892-1.395,3.935-4.217,3.935c-2,0-3.942-0.832-4.383-3.018
	c-0.092-0.415-0.092-0.827-0.092-1.091c0-0.238-0.02-0.328-0.201-0.328c-0.146,0-0.201,0.149-0.238,0.473
	c-0.036,0.473-0.146,1.657-0.146,3.132c0,0.8,0.037,0.918,0.44,1.123C338.431,30.762,339.789,30.967,341.181,30.967"/>
<path fill="#FFFFFF" d="M338.503,1.001c-0.055,0.108-0.201,0.236,0.295,0.619c0.348,0.337,3.226,3.06,3.445,3.262
	c0.2,0.235,0.312,0.335,0.402,0.335c0.109,0,0.236-0.1,0.458-0.335c0.293-0.335,2.771-3.15,3.044-3.482l0.164-0.37l-0.184-0.268
	c-0.094,0-0.274,0.101-0.496,0.336c-0.658,0.671-1.686,1.708-2.311,2.11c-0.22,0.132-0.33,0.165-0.439,0.165l-0.273-0.131
	c-0.348-0.201-1.503-1.336-2.054-2.073l-0.312-0.176l-0.164-0.005C339.182,1.021,338.578,0.889,338.503,1.001"/>
<path fill="#FFFFFF" d="M198.541,94.661v17.342h1.481V96.014l5.408,15.989h1.481l5.383-15.989v15.989h1.479V94.661h-2.394
	l-5.225,15.678l-5.227-15.678H198.541z M181.833,94.661v10.321c0,2.887,0.024,3.172,0.338,4.057c0.728,2.054,2.756,3.25,5.537,3.25
	c2.809,0,4.836-1.196,5.563-3.25c0.312-0.885,0.338-1.17,0.338-4.057V94.661h-1.481v10.296c-0.025,2.782-0.051,3.197-0.391,3.952
	c-0.57,1.272-2.105,2.054-4.029,2.054c-1.586,0-2.963-0.572-3.666-1.508c-0.623-0.832-0.701-1.301-0.729-4.498V94.661H181.833z
	 M170.555,102.383v-6.422h7.592v-1.3h-9.074v17.342h9.179v-1.3h-7.695v-7.021h7.07v-1.3L170.555,102.383L170.555,102.383z
	 M164.273,98.951c-0.156-2.887-1.95-4.576-4.888-4.576c-2.886,0-4.992,1.82-4.992,4.314c0,1.302,0.572,2.418,1.664,3.226
	c0.572,0.416,1.482,0.91,3.614,1.872c1.508,0.702,2.054,1.014,2.574,1.508c0.676,0.624,0.988,1.352,0.988,2.288
	c0,1.976-1.586,3.38-3.848,3.38c-2.496,0-3.952-1.456-4.082-4.029h-1.482c0.078,1.611,0.39,2.547,1.092,3.457
	c0.936,1.225,2.496,1.898,4.42,1.898c3.224,0,5.46-1.95,5.46-4.811c0-1.065-0.312-2.056-0.936-2.834
	c-0.598-0.779-1.586-1.432-3.692-2.418c-2.6-1.195-2.6-1.195-3.172-1.611c-0.702-0.521-1.092-1.223-1.092-2.028
	c0-1.638,1.456-2.886,3.38-2.886c2.08,0,3.328,1.145,3.536,3.25H164.273L164.273,98.951z M138.131,94.661v10.321
	c0,2.887,0.026,3.172,0.338,4.057c0.728,2.054,2.756,3.25,5.538,3.25c2.808,0,4.836-1.196,5.564-3.25
	c0.312-0.885,0.338-1.17,0.338-4.057V94.661h-1.482v10.296c-0.026,2.782-0.052,3.197-0.39,3.952
	c-0.572,1.272-2.106,2.054-4.03,2.054c-1.586,0-2.964-0.572-3.666-1.508c-0.624-0.832-0.702-1.301-0.728-4.498V94.661H138.131z
	 M117.952,94.661v17.342h1.482V96.014l5.408,15.989h1.482l5.382-15.989v15.989h1.482V94.661h-2.392l-5.226,15.678l-5.226-15.678
	H117.952z"/>
</svg>
