<?xml version="1.0" encoding="UTF-8" standalone="no"?>
<!-- Generator: Adobe Illustrator 16.0.4, SVG Export Plug-In . SVG Version: 6.00 Build 0)  -->

<svg
   xmlns:dc="http://purl.org/dc/elements/1.1/"
   xmlns:cc="http://creativecommons.org/ns#"
   xmlns:rdf="http://www.w3.org/1999/02/22-rdf-syntax-ns#"
   xmlns:svg="http://www.w3.org/2000/svg"
   xmlns="http://www.w3.org/2000/svg"
   xmlns:sodipodi="http://sodipodi.sourceforge.net/DTD/sodipodi-0.dtd"
   xmlns:inkscape="http://www.inkscape.org/namespaces/inkscape"
   version="1.1"
   id="Layer_1"
   x="0px"
   y="0px"
   width="371.53299"
   height="114.122"
   viewBox="0 0 371.533 114.122"
   enable-background="new 0 0 511.947 249.515"
   xml:space="preserve"
   inkscape:version="0.91 r13725"
   sodipodi:docname="RSU_Muzejs_logo-01.svg"><metadata
     id="metadata63"><rdf:RDF><cc:Work
         rdf:about=""><dc:format>image/svg+xml</dc:format><dc:type
           rdf:resource="http://purl.org/dc/dcmitype/StillImage" /><dc:title></dc:title></cc:Work></rdf:RDF></metadata><defs
     id="defs61" /><sodipodi:namedview
     pagecolor="#ffffff"
     bordercolor="#666666"
     borderopacity="1"
     objecttolerance="10"
     gridtolerance="10"
     guidetolerance="10"
     inkscape:pageopacity="0"
     inkscape:pageshadow="2"
     inkscape:window-width="1366"
     inkscape:window-height="716"
     id="namedview59"
     showgrid="false"
     showborder="true"
     fit-margin-top="0"
     fit-margin-left="0"
     fit-margin-right="0"
     fit-margin-bottom="0"
     inkscape:zoom="2.3752459"
     inkscape:cx="113.48237"
     inkscape:cy="29.074027"
     inkscape:window-x="-8"
     inkscape:window-y="-8"
     inkscape:window-maximized="1"
     inkscape:current-layer="Layer_1" /><path
     d="m 97.817,32.843 0,35.536 c -13.465,-2.772 -26.996,-3.828 -41.78,-4.092 -2.311,0 -4.687,-0.066 -6.997,-0.066 -2.376,0 -4.686,0.066 -6.996,0.066 C 27.127,64.551 13.002,65.738 0,68.444 l 0,-35.616 5.28,-1.082 0,-3.234 c 12.276,-2.574 27.919,-4.488 43.562,-4.488 15.709,0 30.362,1.782 43.563,4.488 l 0,3.234 5.412,1.097 z m -87.521,-1.822 0,5.875 5.544,-1.122 0,-3.235 c 9.703,-2.706 20.99,-4.224 33.002,-4.224 12.013,0 23.299,1.518 33.002,4.224 l 0,3.235 5.478,1.122 0,-5.875 c -11.286,-2.838 -24.421,-4.488 -38.48,-4.488 -14.059,0 -27.259,1.65 -38.546,4.488 m 38.546,0.528 c -10.164,0 -19.669,1.518 -27.919,4.225 l 0,5.28 5.544,-1.122 0,-3.3 c 6.732,-2.113 14.323,-3.301 22.375,-3.301 8.119,0 15.709,1.188 22.441,3.301 l 0,3.3 5.545,1.122 0,-5.28 C 68.577,33.067 59.007,31.549 48.842,31.549 M 48.71,47.588 c 2.442,0 4.818,0.594 6.997,1.782 l 0,-5.148 c -2.179,-0.792 -4.555,-1.188 -6.931,-1.188 -2.442,0 -4.818,0.396 -6.996,1.188 l 0,5.148 c 2.178,-1.188 4.488,-1.782 6.93,-1.782 m 0.132,-10.692 c -6.204,0 -12.144,1.056 -17.425,2.97 l 0,5.148 5.545,-1.122 0,-3.102 c 3.696,-1.386 7.722,-2.178 11.88,-2.178 4.224,0 8.251,0.792 11.947,2.178 l 0,3.102 5.544,1.122 0,-5.148 c -5.346,-1.914 -11.22,-2.97 -17.491,-2.97 m 48.975,-36.83 0,25.791 C 84.2,24.214 70.84,22.836 56.037,22.639 53.66,22.573 51.35,22.573 48.974,22.573 c -2.31,0 -4.686,0 -6.996,0.066 C 27.071,22.836 12.884,24.209 0,25.913 L 0,0 c 12.54,2.244 27.127,3.894 42.044,4.158 2.31,0 4.62,0.066 6.996,0.066 2.31,0 4.686,-0.066 6.997,-0.066 14.784,-0.264 28.315,-1.584 41.78,-4.092"
     id="path3"
     inkscape:connector-curvature="0"
     style="clip-rule:evenodd;fill:#ffffff;fill-rule:evenodd" /><path
     d="m 118.872,57.027 c 0,4.29 1.122,6.335 2.574,7.788 2.046,1.98 5.082,2.046 6.072,2.046 1.717,0 3.961,-0.264 6.073,-2.178 2.376,-2.112 2.772,-5.61 2.772,-8.844 l 0,-3.169 0,-6.402 c 0.066,-0.99 0.33,-1.518 1.122,-1.65 0.33,-0.132 0.528,-0.132 0.726,-0.132 0.132,0 0.264,0 0.264,-0.132 0,-0.198 -0.132,-0.264 -0.462,-0.264 -0.924,0 -2.31,0.066 -2.508,0.066 -0.198,0 -1.782,-0.066 -3.168,-0.066 -0.264,0 -0.462,0.066 -0.462,0.264 0,0.132 0.132,0.132 0.264,0.132 0.264,0 0.792,0.066 0.99,0.132 0.99,0.198 1.188,0.66 1.254,1.65 0.066,0.99 0.066,1.782 0.066,6.402 l 0,3.697 c 0,3.036 -0.33,5.61 -1.716,7.26 -1.056,1.254 -2.838,2.111 -4.621,2.111 -1.716,0 -3.036,-0.264 -4.488,-1.584 -1.254,-1.254 -2.178,-3.035 -2.178,-7.326 l 0,-4.159 0,-6.402 c 0.066,-0.99 0.33,-1.518 1.122,-1.65 0.33,-0.066 0.528,-0.132 0.726,-0.132 0.132,0 0.264,0 0.264,-0.132 0,-0.198 -0.132,-0.264 -0.462,-0.264 -0.924,0 -2.706,0.066 -2.97,0.066 -0.264,0 -2.046,-0.066 -3.366,-0.066 -0.33,0 -0.462,0.066 -0.462,0.264 0,0.132 0.066,0.132 0.198,0.132 0.264,0 0.792,0.066 0.99,0.132 0.99,0.198 1.254,0.66 1.32,1.65 0.066,0.99 0.066,1.782 0.066,6.402 l 0,4.358 z"
     id="path5"
     inkscape:connector-curvature="0"
     style="clip-rule:evenodd;fill:#ffffff;fill-rule:evenodd" /><path
     d="m 144.679,48.248 c 0.924,1.122 4.291,4.818 7.723,8.515 3.102,3.366 7.392,7.722 7.722,8.052 1.518,1.519 1.914,1.849 2.112,1.849 0.198,0 0.264,-0.133 0.264,-2.112 l 0.066,-17.293 c 0,-1.782 0.132,-2.442 1.122,-2.64 0.33,-0.132 0.528,-0.132 0.726,-0.132 0.198,0 0.331,-0.066 0.331,-0.198 0,-0.132 -0.265,-0.198 -0.595,-0.198 -1.188,0 -2.178,0.066 -2.508,0.066 -0.33,0 -1.716,-0.066 -3.036,-0.066 -0.396,0 -0.594,0.066 -0.594,0.198 0,0.132 0,0.198 0.198,0.198 0.264,0 0.924,0.066 1.452,0.198 0.924,0.198 1.122,0.858 1.188,2.772 l 0.33,15.049 c -0.99,-0.99 -4.158,-4.554 -7.128,-7.722 -4.554,-4.885 -8.977,-9.637 -9.373,-10.165 -0.33,-0.264 -0.858,-0.924 -1.056,-0.924 -0.264,0 -0.33,0.33 -0.33,1.452 l -0.066,16.963 c 0,2.706 -0.132,3.564 -0.858,3.763 -0.462,0.132 -0.99,0.197 -1.188,0.197 -0.198,0 -0.264,0.066 -0.264,0.198 0,0.198 0.198,0.198 0.462,0.198 1.32,0 2.574,-0.066 2.838,-0.066 0.264,0 1.452,0.066 3.169,0.066 0.33,0 0.528,-0.066 0.528,-0.198 0,-0.132 -0.066,-0.198 -0.264,-0.198 -0.264,0 -0.924,-0.065 -1.453,-0.197 -0.792,-0.198 -1.122,-0.99 -1.188,-3.433 l -0.33,-14.192 z"
     id="path7"
     inkscape:connector-curvature="0"
     style="clip-rule:evenodd;fill:#ffffff;fill-rule:evenodd" /><path
     d="m 173.853,52.67 c 0,-4.62 0,-5.412 0.066,-6.402 0.066,-0.99 0.33,-1.518 1.122,-1.65 0.33,-0.066 0.528,-0.132 0.726,-0.132 0.132,0 0.198,0 0.198,-0.132 0,-0.198 -0.132,-0.264 -0.462,-0.264 -0.858,0 -2.706,0.066 -2.904,0.066 -0.132,0 -1.98,-0.066 -2.97,-0.066 -0.33,0 -0.462,0.066 -0.462,0.264 0,0.132 0.132,0.132 0.198,0.132 0.264,0 0.594,0.066 0.924,0.132 0.66,0.132 0.99,0.66 1.056,1.65 l 0,6.402 0,5.215 c 0,2.838 0,5.214 -0.132,6.402 -0.132,0.857 -0.264,1.518 -0.858,1.649 -0.264,0.066 -0.594,0.132 -0.858,0.132 -0.198,0 -0.264,0.066 -0.264,0.198 0,0.132 0.132,0.198 0.462,0.198 0.924,0 2.772,-0.066 2.904,-0.066 0.198,0 2.046,0.066 3.63,0.066 0.33,0 0.528,-0.066 0.528,-0.198 0,-0.132 -0.066,-0.198 -0.264,-0.198 -0.264,0 -0.924,-0.065 -1.32,-0.132 -0.924,-0.132 -1.056,-0.792 -1.188,-1.649 -0.132,-1.188 -0.132,-3.564 -0.132,-6.402 l 0,-5.215 z"
     id="path9"
     inkscape:connector-curvature="0"
     style="clip-rule:evenodd;fill:#ffffff;fill-rule:evenodd" /><path
     d="m 184.018,47.72 c -0.462,-1.188 -0.792,-2.112 -0.792,-2.442 0,-0.264 0,-0.462 0.33,-0.594 0.265,-0.132 0.792,-0.198 1.122,-0.198 0.265,0 0.33,0 0.33,-0.198 0,-0.132 -0.264,-0.198 -0.792,-0.198 -1.123,0 -2.442,0.066 -2.773,0.066 -0.33,0 -2.046,-0.066 -3.432,-0.066 -0.528,0 -0.792,0.066 -0.792,0.198 0,0.132 0.066,0.198 0.264,0.198 0.132,0 0.66,0 1.122,0.132 0.99,0.33 1.452,0.66 2.112,2.31 l 7.261,18.151 c 0.528,1.386 0.66,1.781 1.057,1.781 0.264,0 0.396,-0.462 1.254,-2.244 0.66,-1.451 1.979,-4.619 3.828,-8.976 1.452,-3.631 2.97,-7.129 3.3,-7.987 0.792,-2.046 1.254,-2.508 1.584,-2.772 0.594,-0.396 1.254,-0.396 1.452,-0.396 0.264,0 0.33,0 0.33,-0.198 0,-0.132 -0.132,-0.198 -0.462,-0.198 -0.858,0 -2.179,0.066 -2.311,0.066 -0.396,0 -1.716,-0.066 -2.903,-0.066 -0.463,0 -0.66,0.066 -0.66,0.264 0,0.132 0.132,0.132 0.33,0.132 0.33,0 0.726,0 1.122,0.132 0.264,0.132 0.396,0.462 0.396,0.726 0,0.264 -0.132,0.66 -0.264,1.122 -0.66,2.112 -4.62,12.409 -6.336,16.369 L 184.018,47.72 Z"
     id="path11"
     inkscape:connector-curvature="0"
     style="clip-rule:evenodd;fill:#ffffff;fill-rule:evenodd" /><path
     d="m 204.083,57.885 c 0,2.838 0,5.214 -0.132,6.402 -0.132,0.857 -0.33,1.518 -0.858,1.649 -0.33,0.066 -0.66,0.132 -0.924,0.132 -0.198,0 -0.264,0.066 -0.264,0.198 0,0.132 0.197,0.198 0.527,0.198 0.858,0 2.706,-0.066 2.904,-0.066 0.858,0 2.838,0.132 7.26,0.132 1.188,0 1.387,0 1.65,-0.726 0.132,-0.66 0.33,-2.64 0.33,-2.904 0,-0.197 0,-0.396 -0.132,-0.396 -0.198,0 -0.198,0.065 -0.265,0.396 -0.197,1.254 -0.594,1.849 -1.386,2.179 -0.726,0.329 -2.046,0.329 -2.838,0.329 -2.838,0 -3.3,-0.396 -3.432,-2.441 l 0,-5.082 0,-2.574 c 0,-0.132 0.065,-0.264 0.264,-0.264 0.462,0 3.432,0.066 4.224,0.198 1.122,0.132 1.387,0.594 1.519,0.99 0.132,0.396 0.132,0.726 0.132,0.99 0,0.132 0.066,0.264 0.198,0.264 0.197,0 0.197,-0.33 0.197,-0.527 0,-0.198 0.066,-1.32 0.133,-1.914 0.065,-0.99 0.197,-1.453 0.197,-1.651 0,-0.197 0,-0.263 -0.132,-0.263 -0.132,0 -0.198,0.197 -0.462,0.396 -0.264,0.33 -0.66,0.396 -1.386,0.396 -0.66,0.066 -4.29,0.066 -4.687,0.066 -0.132,0 -0.197,-0.066 -0.197,-0.264 l 0,-8.185 c 0,-0.198 0.065,-0.264 0.197,-0.264 0.33,0 3.564,0 4.093,0.066 1.584,0.198 1.848,0.528 2.046,0.99 0.197,0.396 0.197,0.858 0.197,1.056 0,0.264 0.066,0.396 0.265,0.396 0.065,0 0.132,-0.198 0.198,-0.33 0.065,-0.33 0.132,-1.65 0.132,-1.914 0.065,-0.858 0.264,-1.188 0.264,-1.386 0,-0.198 -0.066,-0.264 -0.132,-0.264 -0.132,0 -0.264,0.066 -0.396,0.132 -0.264,0.066 -0.726,0.132 -1.319,0.132 l -6.732,0 c -0.198,0 -2.046,-0.066 -3.366,-0.066 -0.331,0 -0.462,0.066 -0.462,0.264 0,0.132 0.131,0.132 0.198,0.132 0.264,0 0.792,0.066 1.056,0.132 0.924,0.198 1.188,0.66 1.254,1.65 0.066,0.99 0.066,1.782 0.066,6.402 l 0,5.214 z"
     id="path13"
     inkscape:connector-curvature="0"
     style="clip-rule:evenodd;fill:#ffffff;fill-rule:evenodd" /><path
     d="m 223.62,45.608 c 0,-0.198 0.066,-0.33 0.198,-0.396 0.33,-0.066 1.122,-0.198 1.979,-0.198 3.168,0 5.148,2.244 5.148,5.94 0,2.245 -0.792,3.829 -1.782,4.555 -0.726,0.462 -1.518,0.594 -2.244,0.594 -1.32,0 -2.64,-0.198 -3.102,-0.462 -0.132,-0.132 -0.198,-0.264 -0.198,-0.396 l 0,-9.637 z m -2.376,12.277 c 0,2.838 0,5.214 -0.132,6.402 -0.132,0.857 -0.265,1.518 -0.858,1.649 -0.264,0.066 -0.661,0.132 -0.925,0.132 -0.198,0 -0.198,0.066 -0.198,0.198 0,0.132 0.133,0.198 0.462,0.198 0.859,0 2.707,-0.066 2.773,-0.066 0.132,0 1.979,0.066 3.63,0.066 0.33,0 0.462,-0.066 0.462,-0.198 0,-0.132 -0.066,-0.198 -0.198,-0.198 -0.264,0 -0.924,-0.065 -1.386,-0.132 -0.858,-0.132 -1.056,-0.792 -1.122,-1.649 -0.132,-1.188 -0.132,-3.564 -0.132,-6.402 l 0,-0.727 c 0,-0.131 0.066,-0.197 0.198,-0.197 l 3.63,0.066 c 0.198,0 0.264,0.066 0.396,0.131 0.595,0.793 1.98,2.772 3.234,4.423 1.649,2.178 2.706,3.63 3.96,4.355 0.792,0.396 1.518,0.528 3.169,0.528 l 2.112,0 c 0.527,0 0.726,-0.066 0.726,-0.198 0,-0.132 -0.132,-0.198 -0.264,-0.198 -0.198,0 -0.594,0 -1.188,-0.065 -0.726,-0.132 -1.98,-0.462 -3.564,-2.179 -1.716,-1.848 -3.763,-4.422 -6.204,-7.589 2.706,-2.442 3.63,-4.621 3.63,-6.799 0,-2.046 -1.32,-3.498 -2.046,-4.026 -1.584,-1.122 -3.564,-1.32 -5.412,-1.32 -0.924,0 -3.168,0.066 -3.498,0.066 -0.198,0 -2.046,-0.066 -3.367,-0.066 -0.33,0 -0.462,0.066 -0.462,0.264 0,0.132 0.132,0.132 0.198,0.132 0.264,0 0.793,0.066 1.057,0.132 0.924,0.198 1.188,0.66 1.254,1.65 0.066,0.99 0.066,1.782 0.066,6.402 l 0,5.215 z"
     id="path15"
     inkscape:connector-curvature="0"
     style="clip-rule:evenodd;fill:#ffffff;fill-rule:evenodd" /><path
     d="m 244.411,66.861 c 1.65,0 3.234,-0.33 4.488,-1.188 2.046,-1.452 2.508,-3.696 2.508,-4.95 0,-2.376 -0.792,-4.224 -4.29,-6.93 l -0.858,-0.66 c -2.771,-2.311 -3.563,-3.301 -3.563,-4.951 0,-2.178 1.584,-3.432 3.63,-3.432 2.706,0 3.498,1.188 3.696,1.518 0.132,0.33 0.329,1.122 0.396,1.518 0,0.198 0,0.396 0.198,0.396 0.132,0 0.198,-0.264 0.198,-0.726 0,-1.98 0.132,-2.97 0.132,-3.102 0,-0.198 -0.066,-0.198 -0.265,-0.198 -0.264,0 -0.527,-0.066 -1.056,-0.198 -0.726,-0.132 -1.584,-0.264 -2.772,-0.264 -3.762,0 -6.138,2.178 -6.138,5.346 0,1.98 0.727,3.828 3.895,6.403 l 1.319,1.056 c 2.508,2.112 3.366,3.3 3.366,5.346 0,1.914 -1.386,3.96 -4.224,3.96 -1.98,0 -3.895,-0.858 -4.356,-3.036 -0.065,-0.396 -0.065,-0.792 -0.065,-1.122 0,-0.198 -0.066,-0.264 -0.265,-0.264 -0.132,0 -0.198,0.132 -0.198,0.462 -0.065,0.462 -0.132,1.65 -0.132,3.102 0,0.792 0,0.925 0.396,1.122 1.254,0.595 2.574,0.792 3.96,0.792"
     id="path17"
     inkscape:connector-curvature="0"
     style="clip-rule:evenodd;fill:#ffffff;fill-rule:evenodd" /><path
     d="m 260.846,52.67 c 0,-4.62 0,-5.412 0.066,-6.402 0.065,-0.99 0.264,-1.518 1.056,-1.65 0.396,-0.066 0.528,-0.132 0.792,-0.132 0.066,0 0.198,0 0.198,-0.132 0,-0.198 -0.132,-0.264 -0.462,-0.264 -0.858,0 -2.772,0.066 -2.904,0.066 -0.132,0 -1.979,-0.066 -2.97,-0.066 -0.331,0 -0.462,0.066 -0.462,0.264 0,0.132 0.064,0.132 0.197,0.132 0.198,0 0.595,0.066 0.925,0.132 0.66,0.132 0.924,0.66 0.99,1.65 0.065,0.99 0.065,1.782 0.065,6.402 l 0,5.215 c 0,2.838 0,5.214 -0.132,6.402 -0.132,0.857 -0.264,1.518 -0.858,1.649 -0.264,0.066 -0.594,0.132 -0.924,0.132 -0.133,0 -0.199,0.066 -0.199,0.198 0,0.132 0.133,0.198 0.464,0.198 0.924,0 2.771,-0.066 2.903,-0.066 0.132,0 2.046,0.066 3.63,0.066 0.33,0 0.462,-0.066 0.462,-0.198 0,-0.132 -0.065,-0.198 -0.197,-0.198 -0.265,0 -0.925,-0.065 -1.32,-0.132 -0.924,-0.132 -1.122,-0.792 -1.188,-1.649 -0.132,-1.188 -0.132,-3.564 -0.132,-6.402 l 0,-5.215 z"
     id="path19"
     inkscape:connector-curvature="0"
     style="clip-rule:evenodd;fill:#ffffff;fill-rule:evenodd" /><path
     d="m 275.301,45.344 3.763,0.066 c 2.838,0.066 3.497,0.792 3.63,1.65 l 0,0.33 c 0.065,0.396 0.132,0.528 0.264,0.528 0.132,0 0.198,-0.132 0.198,-0.396 0,-0.33 0.065,-2.376 0.065,-3.3 0,-0.132 0,-0.33 -0.132,-0.33 -0.264,0 -1.056,0.264 -2.904,0.264 l -11.089,0 c -0.396,0 -1.518,0 -2.376,-0.132 -0.792,-0.066 -1.056,-0.33 -1.319,-0.33 -0.066,0 -0.198,0.396 -0.265,0.528 -0.065,0.264 -0.66,2.838 -0.66,3.102 0,0.198 0.066,0.264 0.133,0.264 0.132,0 0.197,-0.066 0.33,-0.264 0.065,-0.264 0.132,-0.462 0.462,-0.924 0.527,-0.726 1.188,-0.924 3.035,-0.99 l 4.356,-0.066 0,12.541 c 0,2.838 0,5.214 -0.132,6.402 -0.132,0.857 -0.265,1.518 -0.858,1.649 -0.264,0.066 -0.594,0.132 -0.857,0.132 -0.198,0 -0.265,0.066 -0.265,0.198 0,0.132 0.132,0.198 0.462,0.198 0.925,0 2.772,-0.066 2.904,-0.066 0.198,0 2.047,0.066 3.631,0.066 0.33,0 0.528,-0.066 0.528,-0.198 0,-0.132 -0.066,-0.198 -0.264,-0.198 -0.265,0 -0.925,-0.065 -1.32,-0.132 -0.924,-0.132 -1.056,-0.792 -1.188,-1.649 -0.132,-1.188 -0.132,-3.564 -0.132,-6.402 l 0,-12.541 z"
     id="path21"
     inkscape:connector-curvature="0"
     style="clip-rule:evenodd;fill:#ffffff;fill-rule:evenodd" /><path
     d="m 287.577,39.734 c -0.132,0 -0.33,0.066 -0.33,0.198 l -0.264,0.726 c 0,0.198 0.132,0.198 0.33,0.198 l 7.459,0 c 0.197,0 0.264,-0.066 0.329,-0.132 l 0.265,-0.66 c 0.065,-0.198 0,-0.33 -0.265,-0.33 l -7.524,0 z m 0.066,16.963 c -0.132,0 -0.132,-0.066 -0.132,-0.198 l 2.641,-7.987 c 0.132,-0.462 0.264,-0.462 0.462,0 l 2.772,7.987 c 0.065,0.066 0.065,0.198 -0.133,0.198 l -5.61,0 z m -4.158,6.534 c -0.528,1.452 -1.122,2.574 -2.509,2.772 -0.197,0 -0.594,0.065 -0.857,0.065 -0.132,0 -0.264,0.066 -0.264,0.198 0,0.132 0.197,0.198 0.594,0.198 1.386,0 3.036,-0.066 3.366,-0.066 0.264,0 1.584,0.066 2.31,0.066 0.264,0 0.396,-0.066 0.396,-0.198 0,-0.132 -0.066,-0.198 -0.265,-0.198 l -0.33,0 c -0.462,0 -1.122,-0.264 -1.122,-0.857 0,-0.528 0.133,-1.254 0.462,-1.98 l 1.717,-5.279 c 0.065,-0.133 0.197,-0.198 0.33,-0.198 l 6.337,0 c 0.197,0 0.197,0.065 0.264,0.198 l 2.772,7.26 c 0.197,0.462 0,0.726 -0.198,0.792 -0.066,0 -0.198,0.065 -0.198,0.198 0,0.197 0.33,0.197 0.924,0.197 2.046,0.066 4.158,0.066 4.62,0.066 0.33,0 0.594,-0.066 0.594,-0.198 0,-0.198 -0.132,-0.198 -0.264,-0.198 -0.33,0 -0.792,-0.065 -1.188,-0.197 -0.659,-0.198 -1.518,-0.66 -2.573,-3.301 -1.782,-4.487 -6.47,-16.699 -6.865,-17.821 -0.396,-0.924 -0.528,-1.056 -0.66,-1.056 -0.198,0 -0.33,0.198 -0.66,1.122 l -6.733,18.415 z"
     id="path23"
     inkscape:connector-curvature="0"
     style="clip-rule:evenodd;fill:#ffffff;fill-rule:evenodd" /><path
     d="m 309.754,45.344 3.763,0.066 c 2.839,0.066 3.498,0.792 3.631,1.65 l 0.065,0.33 c 0,0.396 0.066,0.528 0.198,0.528 0.132,0 0.198,-0.132 0.198,-0.396 0,-0.33 0.132,-2.376 0.132,-3.3 0,-0.132 0,-0.33 -0.198,-0.33 -0.198,0 -0.99,0.264 -2.904,0.264 l -11.089,0 c -0.396,0 -1.518,0 -2.376,-0.132 -0.792,-0.066 -1.056,-0.33 -1.254,-0.33 -0.132,0 -0.264,0.396 -0.33,0.528 -0.065,0.264 -0.66,2.838 -0.66,3.102 0,0.198 0.066,0.264 0.198,0.264 0.066,0 0.198,-0.066 0.264,-0.264 0.066,-0.264 0.198,-0.462 0.528,-0.924 0.462,-0.726 1.188,-0.924 2.97,-0.99 l 4.422,-0.066 0,12.541 c 0,2.838 0,5.214 -0.132,6.402 -0.132,0.857 -0.264,1.518 -0.857,1.649 -0.265,0.066 -0.66,0.132 -0.924,0.132 -0.198,0 -0.198,0.066 -0.198,0.198 0,0.132 0.132,0.198 0.462,0.198 0.858,0 2.706,-0.066 2.904,-0.066 0.132,0 1.979,0.066 3.631,0.066 0.33,0 0.462,-0.066 0.462,-0.198 0,-0.132 -0.066,-0.198 -0.264,-0.198 -0.265,0 -0.925,-0.065 -1.321,-0.132 -0.858,-0.132 -1.057,-0.792 -1.122,-1.649 -0.198,-1.188 -0.198,-3.564 -0.198,-6.402 l 0,-12.541 z"
     id="path25"
     inkscape:connector-curvature="0"
     style="clip-rule:evenodd;fill:#ffffff;fill-rule:evenodd" /><path
     d="m 322.559,57.885 c 0,2.838 0,5.214 -0.197,6.402 -0.132,0.857 -0.265,1.518 -0.858,1.649 -0.264,0.066 -0.594,0.132 -0.857,0.132 -0.198,0 -0.265,0.066 -0.265,0.198 0,0.132 0.132,0.198 0.462,0.198 0.924,0 2.772,-0.066 2.904,-0.066 0.858,0 2.838,0.132 7.327,0.132 1.188,0 1.386,0 1.584,-0.726 0.198,-0.66 0.396,-2.64 0.396,-2.904 0,-0.197 0,-0.396 -0.197,-0.396 -0.133,0 -0.198,0.065 -0.265,0.396 -0.198,1.254 -0.527,1.849 -1.319,2.179 -0.727,0.329 -2.048,0.329 -2.84,0.329 -2.903,0 -3.3,-0.396 -3.432,-2.441 l 0,-5.082 0,-2.574 c 0,-0.132 0.066,-0.264 0.198,-0.264 0.528,0 3.432,0.066 4.224,0.198 1.189,0.132 1.453,0.594 1.585,0.99 0.132,0.396 0.132,0.726 0.132,0.99 0,0.132 0,0.264 0.198,0.264 0.198,0 0.198,-0.33 0.198,-0.527 0,-0.198 0.066,-1.32 0.132,-1.914 0.066,-0.99 0.198,-1.453 0.198,-1.651 0,-0.197 -0.066,-0.263 -0.132,-0.263 -0.132,0 -0.265,0.197 -0.462,0.396 -0.265,0.33 -0.66,0.396 -1.387,0.396 -0.661,0.066 -4.291,0.066 -4.687,0.066 -0.132,0 -0.198,-0.066 -0.198,-0.264 l 0,-8.185 c 0,-0.198 0.066,-0.264 0.198,-0.264 0.33,0 3.563,0 4.025,0.066 1.651,0.198 1.915,0.528 2.113,0.99 0.132,0.396 0.198,0.858 0.198,1.056 0,0.264 0.066,0.396 0.198,0.396 0.132,0 0.197,-0.198 0.264,-0.33 0,-0.33 0.066,-1.65 0.132,-1.914 0.066,-0.858 0.198,-1.188 0.198,-1.386 0,-0.198 0,-0.264 -0.066,-0.264 -0.197,0 -0.264,0.066 -0.462,0.132 -0.197,0.066 -0.66,0.132 -1.254,0.132 l -6.799,0 c -0.132,0 -1.98,-0.066 -3.3,-0.066 -0.33,0 -0.462,0.066 -0.462,0.264 0,0.132 0.065,0.132 0.197,0.132 0.265,0 0.792,0.066 0.99,0.132 0.99,0.198 1.254,0.66 1.32,1.65 0.065,0.99 0.065,1.782 0.065,6.402 l 0,5.214 z"
     id="path27"
     inkscape:connector-curvature="0"
     style="clip-rule:evenodd;fill:#ffffff;fill-rule:evenodd" /><path
     d="m 121.908,3.96 c 0,-0.264 0.066,-0.396 0.264,-0.462 0.396,-0.132 1.452,-0.264 2.574,-0.264 4.027,0 6.535,2.838 6.535,7.59 0,2.904 -0.99,4.95 -2.31,5.874 -0.859,0.594 -1.915,0.726 -2.839,0.726 -1.65,0 -3.432,-0.263 -3.96,-0.593 -0.198,-0.133 -0.264,-0.265 -0.264,-0.463 l 0,-12.408 z m -3.036,15.775 c 0,3.63 0,6.666 -0.198,8.25 -0.198,1.056 -0.33,1.914 -1.122,2.046 -0.33,0.132 -0.792,0.198 -1.122,0.198 -0.264,0 -0.33,0.066 -0.33,0.198 0,0.264 0.198,0.33 0.594,0.33 1.188,0 3.564,-0.132 3.63,-0.132 0.132,0 2.574,0.132 4.62,0.132 0.462,0 0.594,-0.132 0.594,-0.33 0,-0.132 -0.066,-0.198 -0.264,-0.198 -0.33,0 -1.188,-0.066 -1.716,-0.198 -1.122,-0.132 -1.386,-0.99 -1.452,-2.046 -0.198,-1.584 -0.198,-4.62 -0.198,-8.25 l 0,-0.924 c 0,-0.198 0.066,-0.264 0.264,-0.264 l 4.62,0.066 c 0.264,0 0.396,0.066 0.528,0.198 0.726,0.99 2.509,3.564 4.159,5.61 2.112,2.838 3.498,4.752 5.082,5.61 0.99,0.528 1.98,0.726 4.092,0.726 l 2.706,0 c 0.66,0 0.924,-0.066 0.924,-0.33 0,-0.132 -0.198,-0.198 -0.396,-0.198 -0.198,0 -0.726,0 -1.452,-0.132 -0.924,-0.132 -2.574,-0.594 -4.62,-2.706 -2.244,-2.376 -4.818,-5.742 -7.92,-9.768 3.432,-3.103 4.62,-5.941 4.62,-8.779 0,-2.574 -1.716,-4.422 -2.64,-5.148 -2.046,-1.452 -4.555,-1.65 -6.931,-1.65 -1.188,0 -4.092,0.132 -4.488,0.132 -0.198,0 -2.574,-0.132 -4.29,-0.132 -0.462,0 -0.594,0.066 -0.594,0.264 0,0.198 0.132,0.264 0.264,0.264 0.33,0 0.99,0.066 1.32,0.132 1.254,0.264 1.518,0.858 1.65,2.112 0.066,1.254 0.066,2.31 0.066,8.25 l 0,6.667 z"
     id="path29"
     inkscape:connector-curvature="0"
     style="clip-rule:evenodd;fill:#ffffff;fill-rule:evenodd" /><path
     d="m 141.379,4.026 c -0.132,0 -0.264,0 -0.264,0.132 l -0.264,0.792 c 0,0.132 0.066,0.198 0.264,0.198 l 6.997,0 c 0.132,0 0.198,-0.066 0.264,-0.198 l 0.198,-0.66 c 0.066,-0.132 0,-0.264 -0.198,-0.264 l -6.997,0 z m 4.422,12.936 c 0,-4.62 0,-5.478 0.066,-6.402 0.066,-1.056 0.33,-1.584 1.123,-1.716 0.33,-0.066 0.528,-0.066 0.726,-0.066 0.132,0 0.264,-0.066 0.264,-0.198 0,-0.198 -0.198,-0.198 -0.528,-0.198 -0.859,0 -2.707,0.066 -2.905,0.066 -0.132,0 -1.98,-0.066 -2.97,-0.066 -0.33,0 -0.462,0 -0.462,0.198 0,0.132 0.132,0.198 0.264,0.198 0.198,0 0.594,0 0.858,0.132 0.66,0.132 0.99,0.594 1.056,1.65 0.066,0.924 0.066,1.782 0.066,6.402 l 0,5.149 c 0,2.838 0,5.214 -0.198,6.468 -0.066,0.858 -0.264,1.518 -0.858,1.584 -0.264,0.066 -0.594,0.132 -0.858,0.132 -0.198,0 -0.264,0.066 -0.264,0.198 0,0.198 0.198,0.198 0.528,0.198 0.858,0 2.706,-0.066 2.838,-0.066 0.198,0 2.046,0.066 3.697,0.066 0.264,0 0.462,-0.066 0.462,-0.198 0,-0.132 -0.066,-0.198 -0.264,-0.198 -0.264,0 -0.924,-0.066 -1.32,-0.132 -0.859,-0.066 -1.057,-0.726 -1.189,-1.584 -0.132,-1.254 -0.132,-3.63 -0.132,-6.468 l 0,-5.149 z"
     id="path31"
     inkscape:connector-curvature="0"
     style="clip-rule:evenodd;fill:#ffffff;fill-rule:evenodd" /><path
     d="m 167.847,28.183 c 0,0.528 -0.264,0.858 -0.594,1.056 -0.792,0.462 -2.31,0.594 -3.367,0.594 -2.772,0 -5.478,-0.858 -7.788,-3.168 -1.056,-0.99 -3.102,-4.026 -3.102,-8.184 0,-3.433 1.188,-6.139 2.904,-7.525 2.244,-1.716 4.488,-1.914 6.336,-1.914 3.829,0 6.205,1.254 6.931,2.376 0.462,0.726 0.594,1.518 0.66,1.98 0,0.264 0,0.396 0.198,0.396 0.198,0 0.264,-0.132 0.264,-0.594 0,-2.97 0.198,-3.762 0.198,-4.224 0,-0.066 -0.066,-0.198 -0.33,-0.264 -0.792,0 -1.782,-0.132 -2.442,-0.264 -0.528,-0.132 -2.641,-0.528 -4.489,-0.528 -2.31,0 -5.214,0.198 -7.92,1.914 -2.574,1.65 -4.884,4.95 -4.884,9.703 0,3.696 1.716,6.864 3.498,8.448 3.3,2.838 7.458,3.168 9.702,3.168 1.717,0 4.423,-0.33 6.271,-1.32 0.396,-0.264 0.396,-0.33 0.396,-1.65 l 0,-3.3 c 0,-1.254 0,-2.112 0.066,-3.102 0.066,-0.99 0.33,-1.518 1.122,-1.65 0.33,-0.066 0.528,-0.066 0.726,-0.066 0.132,0 0.198,-0.066 0.198,-0.198 0,-0.198 -0.132,-0.264 -0.462,-0.264 -0.858,0 -2.706,0.132 -2.904,0.132 -0.132,0 -1.98,-0.132 -3.3,-0.132 -0.33,0 -0.462,0.066 -0.462,0.264 0,0.132 0.066,0.198 0.198,0.198 0.264,0 0.792,0 0.99,0.066 1.188,0.33 1.386,0.66 1.386,3.036 l 0,5.016 z"
     id="path33"
     inkscape:connector-curvature="0"
     style="clip-rule:evenodd;fill:#ffffff;fill-rule:evenodd" /><path
     d="m 178.869,20.923 c -0.066,0 -0.132,-0.066 -0.066,-0.198 l 2.574,-7.987 c 0.198,-0.462 0.33,-0.462 0.462,0 l 2.839,7.987 c 0,0.132 0,0.198 -0.132,0.198 l -5.677,0 z m -4.092,6.534 c -0.528,1.518 -1.122,2.64 -2.508,2.772 -0.264,0.066 -0.66,0.066 -0.858,0.066 -0.132,0 -0.264,0.066 -0.264,0.198 0,0.198 0.198,0.198 0.528,0.198 1.452,0 3.036,-0.066 3.366,-0.066 0.33,0 1.584,0.066 2.31,0.066 0.264,0 0.462,0 0.462,-0.198 0,-0.132 -0.132,-0.198 -0.33,-0.198 l -0.264,0 c -0.528,0 -1.122,-0.264 -1.122,-0.858 0,-0.528 0.132,-1.254 0.396,-1.98 l 1.782,-5.214 c 0.066,-0.132 0.132,-0.264 0.264,-0.264 l 6.403,0 c 0.132,0 0.197,0.066 0.264,0.198 l 2.771,7.26 c 0.133,0.462 0,0.726 -0.197,0.792 -0.132,0.066 -0.198,0.132 -0.198,0.198 0,0.198 0.33,0.198 0.858,0.264 l 4.619,0 c 0.33,0 0.595,0 0.595,-0.198 0,-0.132 -0.066,-0.198 -0.265,-0.198 -0.33,0 -0.726,0 -1.188,-0.198 -0.594,-0.132 -1.452,-0.594 -2.508,-3.234 -1.849,-4.488 -6.469,-16.765 -6.931,-17.887 -0.331,-0.858 -0.463,-1.056 -0.661,-1.056 -0.132,0 -0.264,0.198 -0.66,1.188 l -6.664,18.349 z"
     id="path35"
     inkscape:connector-curvature="0"
     style="clip-rule:evenodd;fill:#ffffff;fill-rule:evenodd" /><path
     d="m 198.208,31.153 c 1.584,0 3.235,-0.396 4.489,-1.254 2.046,-1.452 2.508,-3.696 2.508,-4.95 0,-2.31 -0.858,-4.158 -4.291,-6.93 l -0.858,-0.661 c -2.771,-2.244 -3.63,-3.234 -3.63,-4.95 0,-2.178 1.584,-3.432 3.63,-3.432 2.773,0 3.565,1.254 3.697,1.584 0.198,0.33 0.396,1.122 0.396,1.452 0.065,0.264 0.065,0.396 0.264,0.396 0.132,0 0.198,-0.198 0.198,-0.66 0,-2.046 0.132,-3.036 0.132,-3.168 0,-0.132 -0.066,-0.198 -0.33,-0.198 -0.198,0 -0.462,0 -0.99,-0.132 -0.792,-0.198 -1.65,-0.33 -2.772,-0.33 -3.763,0 -6.139,2.178 -6.139,5.346 0,1.98 0.727,3.829 3.828,6.403 l 1.386,1.122 c 2.51,2.112 3.367,3.3 3.367,5.28 0,1.914 -1.386,3.96 -4.225,3.96 -1.98,0 -3.96,-0.792 -4.356,-3.036 -0.132,-0.396 -0.132,-0.792 -0.132,-1.056 0,-0.264 0,-0.33 -0.198,-0.33 -0.132,0 -0.197,0.132 -0.197,0.462 -0.066,0.462 -0.198,1.65 -0.198,3.168 0,0.792 0.065,0.858 0.462,1.122 1.253,0.594 2.573,0.792 3.959,0.792"
     id="path37"
     inkscape:connector-curvature="0"
     style="clip-rule:evenodd;fill:#ffffff;fill-rule:evenodd" /><path
     d="m 223.158,31.285 c 2.046,0 4.092,-0.462 5.742,-1.584 2.64,-1.914 3.233,-4.752 3.233,-6.336 0,-3.036 -1.056,-5.346 -5.544,-8.911 l -1.056,-0.858 c -3.564,-2.904 -4.62,-4.224 -4.62,-6.336 0,-2.772 2.046,-4.422 4.62,-4.422 3.498,0 4.554,1.584 4.752,1.98 0.264,0.462 0.462,1.452 0.528,1.914 0,0.33 0.065,0.528 0.264,0.528 0.199,0 0.264,-0.264 0.264,-0.924 0,-2.574 0.198,-3.828 0.198,-4.026 0,-0.132 -0.132,-0.264 -0.396,-0.264 -0.329,0 -0.594,0 -1.319,-0.132 -0.99,-0.264 -2.046,-0.396 -3.564,-0.396 -4.817,0 -7.854,2.772 -7.854,6.798 0,2.574 0.924,4.95 4.951,8.25 l 1.716,1.387 c 3.233,2.706 4.355,4.224 4.355,6.864 0,2.442 -1.781,5.082 -5.412,5.082 -2.573,0 -5.083,-1.122 -5.61,-3.894 -0.132,-0.528 -0.132,-1.056 -0.132,-1.386 0,-0.33 -0.066,-0.462 -0.265,-0.462 -0.197,0 -0.264,0.198 -0.33,0.594 0,0.66 -0.197,2.178 -0.197,4.026 0,1.056 0.065,1.188 0.594,1.452 1.584,0.792 3.3,1.056 5.082,1.056"
     id="path39"
     inkscape:connector-curvature="0"
     style="clip-rule:evenodd;fill:#ffffff;fill-rule:evenodd" /><path
     d="m 243.157,9.636 3.762,0.066 c 2.838,0.066 3.498,0.726 3.63,1.584 l 0,0.33 c 0.066,0.462 0.066,0.528 0.265,0.528 0.065,0 0.197,-0.132 0.197,-0.396 0,-0.33 0.066,-2.376 0.066,-3.234 0,-0.198 0,-0.396 -0.132,-0.396 -0.265,0 -1.057,0.33 -2.904,0.33 l -11.155,0 c -0.33,0 -1.452,-0.066 -2.31,-0.132 -0.792,-0.066 -1.122,-0.396 -1.32,-0.396 -0.065,0 -0.198,0.396 -0.264,0.594 -0.066,0.198 -0.66,2.772 -0.66,3.036 0,0.198 0.066,0.264 0.132,0.264 0.132,0 0.198,0 0.33,-0.264 0.066,-0.198 0.132,-0.396 0.462,-0.924 0.528,-0.726 1.188,-0.924 3.036,-0.924 l 4.357,-0.066 0,12.475 c 0,2.838 0,5.214 -0.133,6.468 -0.132,0.858 -0.264,1.518 -0.857,1.584 -0.264,0.066 -0.594,0.132 -0.858,0.132 -0.198,0 -0.264,0.066 -0.264,0.198 0,0.198 0.132,0.198 0.462,0.198 0.924,0 2.772,-0.066 2.904,-0.066 0.132,0 2.046,0.066 3.63,0.066 0.33,0 0.528,-0.066 0.528,-0.198 0,-0.132 -0.066,-0.198 -0.265,-0.198 -0.264,0 -0.924,-0.066 -1.32,-0.132 -0.924,-0.066 -1.056,-0.726 -1.188,-1.584 -0.132,-1.254 -0.132,-3.63 -0.132,-6.468 l 0,-12.475 z"
     id="path41"
     inkscape:connector-curvature="0"
     style="clip-rule:evenodd;fill:#ffffff;fill-rule:evenodd" /><path
     d="m 256.688,9.834 c 0,-0.198 0.132,-0.33 0.264,-0.33 0.33,-0.132 1.122,-0.198 1.979,-0.198 3.168,0 5.148,2.244 5.148,5.94 0,2.245 -0.792,3.829 -1.848,4.555 -0.66,0.462 -1.519,0.528 -2.179,0.528 -1.319,0 -2.706,-0.198 -3.102,-0.462 -0.198,-0.066 -0.264,-0.198 -0.264,-0.33 l 0,-9.703 z m -2.311,12.277 c 0,2.838 0,5.214 -0.198,6.468 -0.065,0.858 -0.264,1.518 -0.857,1.584 -0.265,0.066 -0.595,0.132 -0.858,0.132 -0.198,0 -0.264,0.066 -0.264,0.198 0,0.198 0.198,0.198 0.527,0.198 0.858,0 2.706,-0.066 2.772,-0.066 0.132,0 1.981,0.066 3.631,0.066 0.33,0 0.462,-0.066 0.462,-0.198 0,-0.132 -0.065,-0.198 -0.264,-0.198 -0.264,0 -0.924,-0.066 -1.32,-0.132 -0.858,-0.066 -1.056,-0.726 -1.122,-1.584 -0.197,-1.254 -0.197,-3.63 -0.197,-6.468 l 0,-0.66 c 0,-0.198 0.065,-0.264 0.264,-0.264 l 3.63,0.066 c 0.132,0 0.264,0.066 0.396,0.198 0.595,0.726 1.98,2.706 3.169,4.356 1.716,2.244 2.771,3.696 4.025,4.356 0.792,0.396 1.519,0.528 3.168,0.528 l 2.112,0 c 0.528,0 0.66,0 0.66,-0.198 0,-0.132 -0.066,-0.198 -0.265,-0.198 -0.132,0 -0.594,0 -1.122,-0.066 -0.726,-0.132 -2.046,-0.462 -3.63,-2.112 -1.716,-1.848 -3.695,-4.488 -6.138,-7.59 2.64,-2.442 3.564,-4.687 3.564,-6.865 0,-2.046 -1.255,-3.498 -2.047,-4.026 -1.518,-1.122 -3.498,-1.254 -5.411,-1.254 -0.925,0 -3.169,0.066 -3.499,0.066 -0.133,0 -1.98,-0.066 -3.301,-0.066 -0.33,0 -0.462,0 -0.462,0.198 0,0.132 0.066,0.198 0.198,0.198 0.264,0 0.792,0 0.99,0.066 0.99,0.198 1.254,0.66 1.32,1.716 0.065,0.924 0.065,1.782 0.065,6.402 l 0,5.149 z"
     id="path43"
     inkscape:connector-curvature="0"
     style="clip-rule:evenodd;fill:#ffffff;fill-rule:evenodd" /><path
     d="m 276.423,20.923 c -0.065,0 -0.132,-0.066 -0.065,-0.198 l 2.573,-7.987 c 0.133,-0.462 0.33,-0.462 0.462,0 l 2.839,7.987 c 0,0.132 0,0.198 -0.133,0.198 l -5.676,0 z m -4.159,6.534 c -0.527,1.518 -1.122,2.64 -2.441,2.772 -0.265,0.066 -0.66,0.066 -0.858,0.066 -0.132,0 -0.264,0.066 -0.264,0.198 0,0.198 0.132,0.198 0.527,0.198 1.387,0 3.036,-0.066 3.366,-0.066 0.33,0 1.584,0.066 2.312,0.066 0.264,0 0.462,0 0.462,-0.198 0,-0.132 -0.132,-0.198 -0.33,-0.198 l -0.265,0 c -0.528,0 -1.122,-0.264 -1.122,-0.858 0,-0.528 0.132,-1.254 0.396,-1.98 l 1.783,-5.214 c 0.066,-0.132 0.132,-0.264 0.264,-0.264 l 6.402,0 c 0.132,0 0.198,0.066 0.264,0.198 l 2.706,7.26 c 0.198,0.462 0,0.726 -0.132,0.792 -0.132,0.066 -0.264,0.132 -0.264,0.198 0,0.198 0.33,0.198 0.924,0.264 l 4.62,0 c 0.33,0 0.594,0 0.594,-0.198 0,-0.132 -0.132,-0.198 -0.264,-0.198 -0.33,0 -0.727,0 -1.188,-0.198 -0.66,-0.132 -1.518,-0.594 -2.574,-3.234 -1.781,-4.488 -6.401,-16.765 -6.863,-17.887 -0.396,-0.858 -0.462,-1.056 -0.66,-1.056 -0.198,0 -0.265,0.198 -0.66,1.188 l -6.735,18.349 z"
     id="path45"
     inkscape:connector-curvature="0"
     style="clip-rule:evenodd;fill:#ffffff;fill-rule:evenodd" /><path
     d="m 295.894,16.435 0,-6.271 c 0,-0.33 0.133,-0.462 0.396,-0.594 0.198,-0.132 1.32,-0.198 1.914,-0.198 3.498,0 6.864,0.396 9.636,3.3 1.254,1.32 2.838,3.696 2.838,7.459 0,2.772 -0.792,5.61 -2.376,7.128 -1.716,1.716 -4.29,2.706 -6.996,2.706 -3.498,0 -4.686,-0.594 -5.016,-1.188 -0.264,-0.33 -0.33,-1.518 -0.33,-2.244 -0.066,-0.528 -0.066,-3.3 -0.066,-6.402 l 0,-3.696 z m -2.508,5.676 c 0,2.838 0,5.214 -0.133,6.468 -0.131,0.858 -0.264,1.518 -0.857,1.584 -0.265,0.066 -0.66,0.132 -0.925,0.132 -0.132,0 -0.197,0.066 -0.197,0.198 0,0.198 0.132,0.198 0.462,0.198 0.857,0 2.772,-0.066 2.904,-0.066 0.265,0 4.026,0.33 6.534,0.33 5.082,0 7.723,-2.046 8.977,-3.366 1.65,-1.782 3.234,-4.62 3.234,-8.316 0,-3.565 -1.386,-6.007 -2.904,-7.525 -3.498,-3.63 -8.91,-3.366 -11.881,-3.366 -1.716,0 -3.63,0.066 -3.96,0.066 -0.132,0 -2.047,-0.066 -3.366,-0.066 -0.33,0 -0.462,0 -0.462,0.198 0,0.132 0.132,0.198 0.264,0.198 0.264,0 0.726,0 0.99,0.066 0.989,0.198 1.188,0.66 1.255,1.716 0.065,0.924 0.065,1.782 0.065,6.402 l 0,5.149 z"
     id="path47"
     inkscape:connector-curvature="0"
     style="clip-rule:evenodd;fill:#ffffff;fill-rule:evenodd" /><path
     d="m 320.645,16.962 c 0,-4.62 0,-5.478 0.065,-6.402 0.066,-1.056 0.33,-1.584 1.122,-1.716 0.33,-0.066 0.528,-0.066 0.726,-0.066 0.133,0 0.198,-0.066 0.198,-0.198 0,-0.198 -0.132,-0.198 -0.462,-0.198 -0.857,0 -2.706,0.066 -2.904,0.066 -0.132,0 -1.979,-0.066 -2.97,-0.066 -0.33,0 -0.462,0 -0.462,0.198 0,0.132 0.132,0.198 0.264,0.198 0.198,0 0.528,0 0.858,0.132 0.66,0.132 0.99,0.594 1.056,1.65 0.066,0.924 0.066,1.782 0.066,6.402 l 0,5.149 c 0,2.838 0,5.214 -0.198,6.468 -0.065,0.858 -0.264,1.518 -0.857,1.584 -0.265,0.066 -0.595,0.132 -0.858,0.132 -0.198,0 -0.264,0.066 -0.264,0.198 0,0.198 0.197,0.198 0.462,0.198 0.924,0 2.771,-0.066 2.903,-0.066 0.198,0 2.047,0.066 3.631,0.066 0.329,0 0.527,-0.066 0.527,-0.198 0,-0.132 -0.065,-0.198 -0.264,-0.198 -0.264,0 -0.924,-0.066 -1.32,-0.132 -0.924,-0.066 -1.056,-0.726 -1.188,-1.584 -0.132,-1.254 -0.132,-3.63 -0.132,-6.468 l 0,-5.149 z"
     id="path49"
     inkscape:connector-curvature="0"
     style="clip-rule:evenodd;fill:#ffffff;fill-rule:evenodd" /><path
     d="m 329.556,12.54 c 0.925,1.056 4.29,4.752 7.723,8.449 3.102,3.366 7.392,7.722 7.722,8.052 1.518,1.584 1.914,1.914 2.112,1.914 0.264,0 0.264,-0.198 0.264,-2.112 l 0.066,-17.359 c 0,-1.782 0.132,-2.442 1.123,-2.64 0.33,-0.066 0.527,-0.066 0.726,-0.066 0.199,0 0.33,-0.066 0.33,-0.198 0,-0.198 -0.264,-0.198 -0.528,-0.198 -1.255,0 -2.245,0.066 -2.575,0.066 -0.264,0 -1.716,-0.066 -3.035,-0.066 -0.396,0 -0.595,0 -0.595,0.198 0,0.132 0,0.198 0.198,0.198 0.264,0 0.924,0 1.452,0.132 0.924,0.264 1.122,0.924 1.188,2.838 l 0.33,14.983 c -0.989,-0.924 -4.157,-4.554 -7.128,-7.722 -4.554,-4.885 -8.977,-9.637 -9.372,-10.099 -0.331,-0.33 -0.793,-0.99 -1.057,-0.99 -0.264,0 -0.33,0.33 -0.33,1.518 l 0,16.963 c 0,2.64 -0.198,3.498 -0.924,3.696 -0.396,0.198 -0.99,0.198 -1.188,0.198 -0.132,0 -0.264,0.066 -0.264,0.198 0,0.198 0.198,0.198 0.462,0.198 1.386,0 2.574,-0.066 2.838,-0.066 0.33,0 1.453,0.066 3.169,0.066 0.33,0 0.528,0 0.528,-0.198 0,-0.132 -0.066,-0.198 -0.264,-0.198 -0.265,0 -0.858,0 -1.452,-0.198 -0.792,-0.198 -1.123,-0.99 -1.123,-3.432 L 329.556,12.54 Z"
     id="path51"
     inkscape:connector-curvature="0"
     style="clip-rule:evenodd;fill:#ffffff;fill-rule:evenodd" /><path
     d="m 356.749,20.923 c -0.066,0 -0.132,-0.066 -0.066,-0.198 l 2.574,-7.987 c 0.198,-0.462 0.33,-0.462 0.462,0 l 2.838,7.987 c 0,0.132 0,0.198 -0.132,0.198 l -5.676,0 z m -4.092,6.534 c -0.594,1.518 -1.188,2.64 -2.508,2.772 -0.265,0.066 -0.66,0.066 -0.858,0.066 -0.132,0 -0.264,0.066 -0.264,0.198 0,0.198 0.197,0.198 0.527,0.198 1.387,0 3.036,-0.066 3.366,-0.066 0.33,0 1.584,0.066 2.311,0.066 0.264,0 0.462,0 0.462,-0.198 0,-0.132 -0.132,-0.198 -0.33,-0.198 l -0.265,0 c -0.527,0 -1.122,-0.264 -1.122,-0.858 0,-0.528 0.133,-1.254 0.396,-1.98 l 1.782,-5.214 c 0.065,-0.132 0.132,-0.264 0.264,-0.264 l 6.402,0 c 0.132,0 0.197,0.066 0.264,0.198 l 2.706,7.26 c 0.199,0.462 0,0.726 -0.132,0.792 -0.132,0.066 -0.198,0.132 -0.198,0.198 0,0.198 0.33,0.198 0.858,0.264 l 4.621,0 c 0.33,0 0.594,0 0.594,-0.198 0,-0.132 -0.066,-0.198 -0.264,-0.198 -0.33,0 -0.727,0 -1.188,-0.198 -0.594,-0.132 -1.452,-0.594 -2.574,-3.234 -1.783,-4.488 -6.402,-16.765 -6.865,-17.887 -0.329,-0.858 -0.462,-1.056 -0.659,-1.056 -0.198,0 -0.265,0.198 -0.66,1.188 l -6.666,18.349 z"
     id="path53"
     inkscape:connector-curvature="0"
     style="clip-rule:evenodd;fill:#ffffff;fill-rule:evenodd" /><path
     d="m 336.882,30.493 c 0.198,1.056 0.396,2.112 0.396,3.168 0,1.122 -0.396,2.047 -0.396,2.245 0,0.131 0.132,0.198 0.265,0.198 0.132,0 0.659,-0.396 1.386,-1.849 0.33,-0.792 0.66,-2.442 0.66,-3.102 l 0,-0.66 c 0,0 0,-0.198 -0.265,-0.198 l -1.781,0 c -0.265,0 -0.265,0.198 -0.265,0.198"
     id="path55"
     inkscape:connector-curvature="0"
     style="clip-rule:evenodd;fill:#ffffff;fill-rule:evenodd" /><path
     d="m 199.008,99.196 c -0.156,-2.886 -1.95,-4.575 -4.888,-4.575 -2.886,0 -4.992,1.819 -4.992,4.315 0,1.3 0.572,2.418 1.664,3.225 0.572,0.416 1.482,0.909 3.614,1.871 1.508,0.702 2.054,1.015 2.574,1.509 0.676,0.624 0.987,1.352 0.987,2.288 0,1.976 -1.586,3.38 -3.848,3.38 -2.496,0 -3.952,-1.456 -4.082,-4.03 l -1.482,0 c 0.078,1.612 0.391,2.548 1.093,3.458 0.936,1.222 2.495,1.897 4.42,1.897 3.224,0 5.46,-1.949 5.46,-4.81 0,-1.066 -0.312,-2.054 -0.937,-2.834 -0.598,-0.78 -1.586,-1.43 -3.691,-2.418 -2.601,-1.196 -2.601,-1.196 -3.173,-1.612 -0.701,-0.52 -1.092,-1.222 -1.092,-2.027 0,-1.639 1.456,-2.887 3.38,-2.887 2.08,0 3.328,1.145 3.536,3.25 l 1.457,0 z m -16.125,-4.29 0,13.807 c 0,1.638 -0.025,2.054 -0.182,2.496 -0.312,0.91 -0.988,1.403 -2.106,1.508 -0.416,0.052 -0.676,0.078 -0.78,0.104 -0.052,0 -0.13,0 -0.26,-0.025 l 0,1.3 c 0.234,0.026 0.442,0.026 0.52,0.026 1.924,0 3.432,-0.78 3.978,-2.08 0.312,-0.702 0.364,-1.145 0.364,-3.303 l 0,-13.832 -1.534,0 z m -12.54,7.722 0,-6.422 7.592,0 0,-1.301 -9.074,0 0,17.343 9.178,0 0,-1.301 -7.696,0 0,-7.02 7.072,0 0,-1.3 -7.072,0 z m -15.545,-7.722 0,1.301 8.632,0 -9.126,14.897 0,1.145 10.816,0 0,-1.301 -9.074,0 9.23,-15.027 0,-1.015 -10.478,0 z m -15.438,0 0,10.322 c 0,2.886 0.026,3.172 0.338,4.056 0.728,2.055 2.756,3.25 5.538,3.25 2.808,0 4.836,-1.195 5.564,-3.25 0.312,-0.884 0.338,-1.17 0.338,-4.056 l 0,-10.322 -1.482,0 0,10.297 c -0.026,2.781 -0.052,3.197 -0.39,3.951 -0.572,1.274 -2.106,2.055 -4.03,2.055 -1.586,0 -2.964,-0.572 -3.666,-1.509 -0.624,-0.831 -0.702,-1.3 -0.728,-4.497 l 0,-10.297 -1.482,0 z m -20.179,0 0,17.343 1.482,0 0,-15.99 5.408,15.99 1.482,0 5.382,-15.99 0,15.99 1.482,0 0,-17.343 -2.392,0 -5.226,15.679 -5.226,-15.679 -2.392,0 z"
     id="path57"
     inkscape:connector-curvature="0"
     style="fill:#ffffff" /></svg>