<?xml version="1.0" encoding="UTF-8" standalone="no"?>
<svg
   xmlns:dc="http://purl.org/dc/elements/1.1/"
   xmlns:cc="http://creativecommons.org/ns#"
   xmlns:rdf="http://www.w3.org/1999/02/22-rdf-syntax-ns#"
   xmlns:svg="http://www.w3.org/2000/svg"
   xmlns="http://www.w3.org/2000/svg"
   xmlns:sodipodi="http://sodipodi.sourceforge.net/DTD/sodipodi-0.dtd"
   xmlns:inkscape="http://www.inkscape.org/namespaces/inkscape"
   viewBox="0 0 117.03728 21.572937"
   height="21.572937"
   width="117.03728"
   xml:space="preserve"
   id="svg2"
   version="1.1"
   inkscape:version="0.91 r13725"
   sodipodi:docname="logo.svg"><sodipodi:namedview
     pagecolor="#ffffff"
     bordercolor="#666666"
     borderopacity="1"
     objecttolerance="10"
     gridtolerance="10"
     guidetolerance="10"
     inkscape:pageopacity="0"
     inkscape:pageshadow="2"
     inkscape:window-width="1366"
     inkscape:window-height="716"
     id="namedview39"
     showgrid="false"
     fit-margin-top="0"
     fit-margin-left="0"
     fit-margin-right="0"
     fit-margin-bottom="0"
     inkscape:zoom="4.162747"
     inkscape:cx="73.480044"
     inkscape:cy="20.479356"
     inkscape:window-x="-8"
     inkscape:window-y="-8"
     inkscape:window-maximized="1"
     inkscape:current-layer="g16" /><metadata
     id="metadata8"><rdf:RDF><cc:Work
         rdf:about=""><dc:format>image/svg+xml</dc:format><dc:type
           rdf:resource="http://purl.org/dc/dcmitype/StillImage" /><dc:title></dc:title></cc:Work></rdf:RDF></metadata><defs
     id="defs6"><clipPath
       id="clipPath20"
       clipPathUnits="userSpaceOnUse"><path
         id="path18"
         d="m 0,0 3415,0 0,3401.6 -3415,0 z"
         inkscape:connector-curvature="0" /></clipPath><clipPath
       clipPathUnits="userSpaceOnUse"
       id="clipPath4173"><rect
         style="opacity:0;fill:#ffffff;stroke:#ffffff"
         id="rect4175"
         width="117.03728"
         height="21.572937"
         x="169.86543"
         y="216.41452" /></clipPath><clipPath
       clipPathUnits="userSpaceOnUse"
       id="clipPath4177"><rect
         style="opacity:0;fill:#ffffff;stroke:#ffffff"
         id="rect4179"
         width="117.03728"
         height="21.572937"
         x="169.86543"
         y="216.41452" /></clipPath><clipPath
       clipPathUnits="userSpaceOnUse"
       id="clipPath4181"><rect
         style="opacity:0;fill:#ffffff;stroke:#ffffff;stroke-width:0.75"
         id="rect4183"
         width="87.777962"
         height="16.179703"
         x="127.39908"
         y="-177.84912"
         transform="scale(1,-1)" /></clipPath></defs><g
     transform="matrix(1.3333333,0,0,-1.3333333,-169.86543,237.13216)"
     id="g10"
     clip-path="url(#clipPath4181)"><g
       transform="scale(0.1,0.1)"
       id="g12"><g
         id="g14"><g
           clip-path="url(#clipPath20)"
           id="g16"><path
             id="path22"
             style="fill:#231f20;fill-opacity:1;fill-rule:nonzero;stroke:none;opacity:0"
             d="m 0,0 3415.17,0 0,3401.6 -3415.17,0 z"
             inkscape:connector-curvature="0" /><path
             id="path24"
             style="fill:#ffffff;fill-opacity:1;fill-rule:nonzero;stroke:none"
             d="m 1388.87,1692.06 c -14.59,0 -28.37,-2.49 -40.77,-6.98 l 0,-12 12.92,2.56 0,7.27 c 8.64,3.32 18,5.12 27.85,5.12 9.86,0 19.35,-1.8 28.01,-5.12 l 0,-7.27 12.88,-2.56 0,12 c -12.37,4.49 -26.3,6.98 -40.89,6.98 m -90.22,13.84 0,-13.78 12.93,2.61 0,7.55 c 22.71,6.33 49.14,9.82 77.29,9.82 28.12,0 54.5,-3.49 77.17,-9.82 l 0,-7.55 12.94,-2.61 0,13.78 c -26.38,6.63 -57.16,9.89 -90.11,9.89 -32.93,0 -63.78,-3.26 -90.22,-9.89 m 90.22,-1.38 c -23.83,0 -46.08,-3.53 -65.33,-9.79 l 0,-12.41 12.89,2.64 0,7.69 c 15.8,4.98 33.59,7.92 52.44,7.92 18.83,0 36.77,-2.94 52.56,-7.92 l 0,-7.69 12.89,-2.64 0,12.41 c -19.28,6.26 -41.61,9.79 -65.45,9.79 m 0,-37.45 c 5.71,0 10.97,-1.49 16.13,-4.14 l 0,11.99 c -5.18,1.86 -10.49,2.85 -16.13,2.85 -5.63,0 -11.37,-0.99 -16.58,-2.85 l 0,-11.99 c 5.15,2.65 10.82,4.14 16.58,4.14 m -114.42,-48.79 0,83.4 12.46,2.51 0,7.46 c 28.72,6.06 65.35,10.61 101.96,10.61 36.64,0 71.09,-4.12 102.11,-10.61 l 0,-7.46 12.38,-2.51 0,-83.36 c -31.5,6.56 -63.03,9.1 -97.8,9.65 -5.44,0.08 -11.18,0.08 -16.69,0.08 -5.47,0 -10.65,0 -16.06,-0.08 -34.93,-0.55 -67.97,-3.34 -98.36,-9.69 m 228.91,160.11 0,-60.48 c -31.78,3.83 -63.22,7.18 -97.89,7.71 -5.49,0.14 -11.09,0.14 -16.6,0.14 -5.49,0 -10.83,0 -16.28,-0.14 -34.91,-0.53 -67.9,-3.88 -98.14,-7.77 l 0,60.62 c 29.3,-5.24 63.43,-9.12 98.36,-9.71 5.41,-0.05 10.59,-0.09 16.06,-0.09 5.51,0 11.25,0.04 16.69,0.09 34.77,0.59 66.3,3.73 97.8,9.63"
             inkscape:connector-curvature="0" /><path
             id="path26"
             style="fill:#ffffff;fill-opacity:1;fill-rule:nonzero;stroke:none"
             d="m 1552.95,1645.06 c 0,-10.16 2.61,-15.04 6,-18.23 4.95,-4.64 11.93,-4.92 14.3,-4.92 4.09,0 9.31,0.67 14.25,5.08 5.57,5.02 6.39,13.24 6.39,20.76 l 0,7.46 c 0,10.8 0,12.72 0.13,14.96 0.14,2.41 0.73,3.6 2.58,3.93 0.86,0.21 1.25,0.21 1.78,0.21 0.26,0 0.53,0.16 0.53,0.41 0,0.43 -0.36,0.57 -1.1,0.57 -2.13,0 -5.33,-0.17 -5.83,-0.17 -0.43,0 -4.23,0.17 -7.38,0.17 -0.76,0 -1.08,-0.14 -1.08,-0.57 0,-0.25 0.28,-0.41 0.55,-0.41 0.67,0 1.78,-0.05 2.34,-0.21 2.28,-0.47 2.87,-1.54 3,-3.93 0.16,-2.24 0.16,-4.16 0.16,-14.96 l 0,-8.71 c 0,-7.13 -0.88,-12.99 -4.04,-17.01 -2.48,-2.97 -6.67,-4.94 -10.88,-4.94 -3.97,0 -7.09,0.62 -10.49,3.79 -3,2.87 -5.21,7.17 -5.21,17.19 l 0,9.68 c 0,10.8 0,12.72 0.13,14.96 0.14,2.41 0.72,3.64 2.56,3.93 0.87,0.16 1.27,0.21 1.8,0.21 0.25,0 0.49,0.16 0.49,0.41 0,0.43 -0.33,0.57 -1.06,0.57 -2.15,0 -6.26,-0.17 -6.89,-0.17 -0.59,0 -4.85,0.17 -7.97,0.17 -0.79,0 -1.12,-0.14 -1.12,-0.57 0,-0.25 0.3,-0.41 0.59,-0.41 0.59,0 1.78,-0.05 2.31,-0.21 2.3,-0.47 2.87,-1.54 3.04,-3.93 0.12,-2.24 0.12,-4.16 0.12,-14.96 l 0,-10.15"
             inkscape:connector-curvature="0" /><path
             id="path28"
             style="fill:#ffffff;fill-opacity:1;fill-rule:nonzero;stroke:none"
             d="m 1614.27,1665.56 c 2.23,-2.53 10.09,-11.28 18.13,-19.98 7.35,-7.85 17.35,-18.08 18.13,-18.75 3.66,-3.67 4.49,-4.45 5.05,-4.45 0.43,0 0.62,0.35 0.62,4.9 l 0.11,40.65 c 0,4.16 0.32,5.7 2.56,6.19 0.82,0.21 1.35,0.21 1.68,0.21 0.49,0 0.76,0.2 0.76,0.47 0,0.45 -0.46,0.49 -1.23,0.49 -2.85,0 -5.13,-0.17 -5.89,-0.17 -0.79,0 -4.09,0.17 -7.23,0.17 -0.82,0 -1.37,-0.04 -1.37,-0.49 0,-0.27 0.06,-0.47 0.55,-0.47 0.56,0 2.12,-0.07 3.41,-0.39 2.11,-0.52 2.63,-2.05 2.66,-6.54 l 0.76,-35.23 c -2.17,2.26 -9.73,10.74 -16.62,18.1 -10.68,11.47 -21.04,22.58 -22.08,23.79 -0.68,0.66 -1.85,2.19 -2.38,2.19 -0.55,0 -0.79,-0.74 -0.79,-3.44 l -0.06,-39.76 c 0,-6.33 -0.34,-8.34 -2.11,-8.79 -0.98,-0.37 -2.24,-0.43 -2.84,-0.43 -0.33,0 -0.56,-0.14 -0.56,-0.39 0,-0.55 0.47,-0.57 1.16,-0.57 3.1,0 6.02,0.16 6.65,0.16 0.61,0 3.37,-0.16 7.32,-0.16 0.86,0 1.28,0.16 1.28,0.57 0,0.25 -0.22,0.39 -0.59,0.39 -0.59,0 -2.1,0.06 -3.46,0.43 -1.87,0.54 -2.58,2.34 -2.69,8.02 l -0.93,33.28"
             inkscape:connector-curvature="0" /><path
             id="path30"
             style="fill:#ffffff;fill-opacity:1;fill-rule:nonzero;stroke:none"
             d="m 1682.27,1655.21 c 0,10.8 0,12.72 0.11,14.96 0.19,2.43 0.73,3.6 2.56,3.93 0.86,0.16 1.25,0.21 1.76,0.21 0.29,0 0.56,0.16 0.56,0.41 0,0.43 -0.39,0.57 -1.13,0.57 -2.04,0 -6.42,-0.17 -6.78,-0.17 -0.35,0 -4.76,0.17 -6.99,0.17 -0.8,0 -1.13,-0.14 -1.13,-0.57 0,-0.25 0.3,-0.41 0.57,-0.41 0.45,0 1.37,-0.05 2.14,-0.25 1.51,-0.33 2.24,-1.5 2.29,-3.89 0.22,-2.24 0.22,-4.16 0.22,-14.96 l 0,-12.28 c 0,-6.58 0,-12.11 -0.38,-15 -0.29,-2.03 -0.62,-3.56 -1.97,-3.85 -0.62,-0.14 -1.48,-0.25 -2.14,-0.25 -0.4,0 -0.52,-0.2 -0.52,-0.39 0,-0.41 0.36,-0.57 1.11,-0.57 2.04,0 6.45,0.16 6.8,0.16 0.36,0 4.74,-0.16 8.56,-0.16 0.72,0 1.09,0.16 1.09,0.57 0,0.19 -0.17,0.39 -0.62,0.39 -0.6,0 -2.12,0.11 -3.07,0.25 -2.09,0.29 -2.54,1.82 -2.71,3.85 -0.33,2.89 -0.33,8.42 -0.33,15 l 0,12.28"
             inkscape:connector-curvature="0" /><path
             id="path32"
             style="fill:#ffffff;fill-opacity:1;fill-rule:nonzero;stroke:none"
             d="m 1705.42,1666.81 c -1.03,2.74 -1.85,4.89 -1.85,5.77 0,0.5 0.1,1.05 0.88,1.36 0.64,0.32 1.86,0.37 2.62,0.37 0.49,0 0.76,0.16 0.76,0.49 0,0.35 -0.66,0.49 -1.91,0.49 -2.68,0 -5.8,-0.17 -6.47,-0.17 -0.86,0 -4.74,0.17 -8.1,0.17 -1.13,0 -1.79,-0.04 -1.79,-0.49 0,-0.27 0.13,-0.49 0.53,-0.49 0.44,0 1.58,0 2.64,-0.25 2.44,-0.72 3.49,-1.48 5,-5.33 l 16.96,-42.54 c 1.35,-3.32 1.72,-4.28 2.5,-4.28 0.72,0 0.98,1.12 2.93,5.26 1.62,3.38 4.74,10.89 8.96,20.97 3.54,8.58 7,16.88 7.76,18.79 1.84,4.77 2.9,5.92 3.79,6.58 1.34,0.8 2.87,0.8 3.35,0.8 0.57,0 0.84,0.16 0.84,0.49 0,0.35 -0.41,0.49 -1.2,0.49 -2.04,0 -4.97,-0.17 -5.4,-0.17 -0.86,0 -4.02,0.17 -6.79,0.17 -1.09,0 -1.51,-0.14 -1.51,-0.57 0,-0.33 0.32,-0.41 0.72,-0.41 0.79,0 1.82,0 2.64,-0.25 0.72,-0.33 0.92,-1.05 0.92,-1.64 0,-0.59 -0.27,-1.52 -0.66,-2.6 -1.52,-5.02 -10.83,-29.18 -14.77,-38.47 l -13.35,35.46"
             inkscape:connector-curvature="0" /><path
             id="path34"
             style="fill:#ffffff;fill-opacity:1;fill-rule:nonzero;stroke:none"
             d="m 1751.89,1642.95 c 0,-6.6 0,-12.13 -0.35,-15.04 -0.27,-2.01 -0.66,-3.54 -2.05,-3.83 -0.58,-0.14 -1.4,-0.25 -2.05,-0.25 -0.43,0 -0.55,-0.2 -0.55,-0.39 0,-0.41 0.3,-0.57 1.1,-0.57 2.07,0 6.48,0.16 6.81,0.16 2.02,0 6.66,-0.39 17.14,-0.39 2.68,0 3.27,0 3.72,1.77 0.34,1.49 0.94,6.23 0.94,6.8 0,0.49 0,1.05 -0.41,1.05 -0.39,0 -0.53,-0.25 -0.65,-1.05 -0.53,-2.87 -1.32,-4.26 -3.14,-5.02 -1.81,-0.78 -4.88,-0.78 -6.66,-0.78 -6.76,0 -7.81,0.92 -8.06,5.66 l 0,18.01 c 0,0.25 0.15,0.53 0.52,0.53 1.16,0 8.04,-0.2 9.95,-0.39 2.63,-0.28 3.3,-1.47 3.57,-2.44 0.25,-0.86 0.25,-1.57 0.25,-2.25 0,-0.37 0.15,-0.66 0.55,-0.66 0.45,0 0.45,0.8 0.45,1.34 0,0.47 0.14,3.03 0.27,4.44 0.22,2.26 0.55,3.43 0.55,3.84 0,0.47 -0.16,0.59 -0.33,0.59 -0.3,0 -0.55,-0.35 -1.06,-0.92 -0.6,-0.64 -1.62,-0.82 -3.26,-0.95 -1.62,-0.14 -10.12,-0.14 -11.01,-0.14 -0.33,0 -0.45,0.17 -0.45,0.7 l 0,19.12 c 0,0.53 0.15,0.69 0.45,0.69 0.76,0 8.31,-0.02 9.49,-0.16 3.77,-0.47 4.43,-1.27 4.92,-2.4 0.37,-0.82 0.43,-2.03 0.43,-2.48 0,-0.61 0.14,-0.92 0.53,-0.92 0.29,0 0.43,0.45 0.52,0.78 0.14,0.8 0.26,3.83 0.33,4.55 0.2,1.99 0.53,2.77 0.53,3.3 0,0.33 -0.03,0.59 -0.26,0.59 -0.34,0 -0.6,-0.26 -0.99,-0.33 -0.52,-0.18 -1.66,-0.26 -2.91,-0.36 -1.64,-0.03 -15.43,-0.03 -15.92,-0.03 -0.33,0 -4.74,0.17 -7.81,0.17 -0.79,0 -1.16,-0.14 -1.16,-0.57 0,-0.25 0.3,-0.39 0.58,-0.39 0.6,0 1.83,-0.07 2.36,-0.21 2.3,-0.49 2.83,-1.56 2.97,-3.95 0.15,-2.24 0.15,-4.16 0.15,-14.96 l 0,-12.26"
             inkscape:connector-curvature="0" /><path
             id="path36"
             style="fill:#ffffff;fill-opacity:1;fill-rule:evenodd;stroke:none"
             d="m 1792.32,1642.95 c 0,-6.6 0,-12.13 -0.37,-15.04 -0.25,-2.01 -0.58,-3.54 -1.97,-3.83 -0.66,-0.14 -1.48,-0.25 -2.11,-0.25 -0.43,0 -0.57,-0.2 -0.57,-0.39 0,-0.41 0.38,-0.57 1.1,-0.57 2.11,0 6.49,0.16 6.52,0.16 0.4,0 4.75,-0.16 8.58,-0.16 0.72,0 1.11,0.16 1.11,0.57 0,0.19 -0.17,0.39 -0.59,0.39 -0.62,0 -2.14,0.11 -3.1,0.25 -2.07,0.29 -2.5,1.82 -2.7,3.83 -0.34,2.91 -0.34,8.44 -0.34,15.04 l 0,1.72 c 0,0.31 0.07,0.54 0.47,0.54 l 8.54,-0.15 c 0.43,0 0.63,-0.14 0.88,-0.39 1.39,-1.86 4.62,-6.47 7.52,-10.3 4.03,-5.21 6.39,-8.61 9.4,-10.15 1.81,-1.02 3.52,-1.35 7.46,-1.35 l 4.9,0 c 1.25,0 1.64,0.16 1.64,0.57 0,0.19 -0.25,0.39 -0.62,0.39 -0.36,0 -1.38,0 -2.66,0.19 -1.76,0.31 -4.76,1.06 -8.45,5.02 -4.09,4.28 -8.76,10.47 -14.44,17.74 6.23,5.78 8.34,10.91 8.34,16.03 0,4.81 -3.03,8.22 -4.77,9.43 -3.7,2.62 -8.32,3.05 -12.69,3.05 -2.15,0 -7.41,-0.17 -8.19,-0.17 -0.32,0 -4.7,0.17 -7.81,0.17 -0.78,0 -1.11,-0.14 -1.11,-0.57 0,-0.25 0.23,-0.39 0.57,-0.39 0.58,0 1.8,-0.07 2.32,-0.21 2.31,-0.49 2.85,-1.56 3.01,-3.95 0.13,-2.24 0.13,-4.16 0.13,-14.96 z m 5.56,28.88 c 0,0.41 0.21,0.73 0.54,0.86 0.65,0.16 2.54,0.39 4.69,0.39 7.37,0 11.99,-5.21 11.99,-13.88 0,-5.24 -1.86,-9.01 -4.26,-10.65 -1.6,-1.13 -3.52,-1.34 -5.23,-1.34 -3.04,0 -6.21,0.48 -7.26,1.07 -0.4,0.27 -0.47,0.53 -0.47,0.86 l 0,22.69"
             inkscape:connector-curvature="0" /><path
             id="path38"
             style="fill:#ffffff;fill-opacity:1;fill-rule:nonzero;stroke:none"
             d="m 1846.21,1621.91 c 3.69,0 7.5,0.82 10.49,2.91 4.78,3.38 5.87,8.69 5.87,11.53 0,5.5 -1.98,9.82 -10.15,16.29 l -1.91,1.52 c -6.51,5.33 -8.48,7.64 -8.48,11.66 0,5.08 3.75,7.99 8.54,7.99 6.39,0 8.24,-2.91 8.64,-3.64 0.43,-0.78 0.85,-2.63 0.93,-3.49 0.06,-0.53 0.11,-0.86 0.55,-0.86 0.36,0 0.46,0.47 0.46,1.58 0,4.69 0.33,6.99 0.33,7.32 0,0.4 -0.17,0.53 -0.7,0.53 -0.58,0 -1.14,0.04 -2.42,0.33 -1.76,0.39 -3.77,0.67 -6.47,0.67 -8.8,0 -14.37,-5.06 -14.37,-12.48 0,-4.71 1.7,-9.01 9.06,-15.02 l 3.07,-2.58 c 5.99,-4.92 8.01,-7.71 8.01,-12.48 0,-4.43 -3.27,-9.28 -9.93,-9.28 -4.64,0 -9.22,1.99 -10.28,7.13 -0.2,0.98 -0.2,1.97 -0.2,2.56 0,0.53 -0.1,0.76 -0.45,0.76 -0.4,0 -0.53,-0.35 -0.61,-1.09 -0.06,-1.15 -0.33,-3.91 -0.33,-7.37 0,-1.85 0.08,-2.14 1.05,-2.61 2.82,-1.41 6.01,-1.88 9.3,-1.88"
             inkscape:connector-curvature="0" /><path
             id="path40"
             style="fill:#ffffff;fill-opacity:1;fill-rule:nonzero;stroke:none"
             d="m 1883.59,1655.21 c 0,10.8 0,12.72 0.14,14.96 0.14,2.43 0.73,3.6 2.58,3.93 0.82,0.16 1.25,0.21 1.74,0.21 0.3,0 0.56,0.16 0.56,0.41 0,0.43 -0.39,0.57 -1.11,0.57 -2.05,0 -6.44,-0.17 -6.8,-0.17 -0.33,0 -4.74,0.17 -6.99,0.17 -0.8,0 -1.12,-0.14 -1.12,-0.57 0,-0.25 0.26,-0.41 0.55,-0.41 0.47,0 1.39,-0.05 2.12,-0.25 1.56,-0.33 2.28,-1.5 2.41,-3.89 0.13,-2.24 0.13,-4.16 0.13,-14.96 l 0,-12.28 c 0,-6.58 0,-12.11 -0.36,-15 -0.29,-2.03 -0.62,-3.56 -2.01,-3.85 -0.61,-0.14 -1.46,-0.25 -2.12,-0.25 -0.4,0 -0.52,-0.2 -0.52,-0.39 0,-0.41 0.35,-0.57 1.12,-0.57 2.05,0 6.46,0.16 6.79,0.16 0.36,0 4.75,-0.16 8.58,-0.16 0.72,0 1.05,0.16 1.05,0.57 0,0.19 -0.13,0.39 -0.6,0.39 -0.59,0 -2.1,0.11 -3.07,0.25 -2.11,0.29 -2.54,1.82 -2.7,3.85 -0.37,2.89 -0.37,8.42 -0.37,15 l 0,12.28"
             inkscape:connector-curvature="0" /><path
             id="path42"
             style="fill:#ffffff;fill-opacity:1;fill-rule:nonzero;stroke:none"
             d="m 1917.75,1672.28 8.71,-0.13 c 6.66,-0.14 8.24,-1.72 8.54,-3.81 l 0.1,-0.74 c 0.06,-0.98 0.19,-1.18 0.49,-1.18 0.33,0 0.5,0.26 0.5,0.92 0,0.78 0.26,5.51 0.26,7.64 0,0.35 0,0.8 -0.39,0.8 -0.54,0 -2.44,-0.66 -6.87,-0.66 l -26,0 c -0.83,0 -3.46,0.13 -5.47,0.33 -1.88,0.13 -2.58,0.8 -3.07,0.8 -0.26,0 -0.53,-0.92 -0.73,-1.27 -0.07,-0.59 -1.52,-6.52 -1.52,-7.25 0,-0.39 0.21,-0.62 0.4,-0.62 0.27,0 0.5,0.13 0.7,0.68 0.15,0.51 0.42,0.96 1.15,2.19 1.12,1.64 2.76,2.11 7.11,2.17 l 10.25,0.13 0,-29.33 c 0,-6.6 0,-12.13 -0.36,-15.04 -0.26,-2.01 -0.65,-3.54 -1.97,-3.83 -0.66,-0.14 -1.48,-0.25 -2.11,-0.25 -0.42,0 -0.57,-0.2 -0.57,-0.39 0,-0.41 0.37,-0.57 1.17,-0.57 2.01,0 6.42,0.16 6.75,0.16 0.37,0 4.71,-0.16 8.54,-0.16 0.72,0 1.12,0.16 1.12,0.57 0,0.19 -0.12,0.39 -0.56,0.39 -0.63,0 -2.14,0.11 -3.14,0.25 -2.04,0.29 -2.5,1.82 -2.69,3.83 -0.34,2.91 -0.34,8.44 -0.34,15.04 l 0,29.33"
             inkscape:connector-curvature="0" /><path
             id="path44"
             style="fill:#ffffff;fill-opacity:1;fill-rule:evenodd;stroke:none"
             d="m 1938.39,1630.49 c -1.26,-3.5 -2.61,-6.12 -5.83,-6.55 -0.57,-0.05 -1.52,-0.11 -2.01,-0.11 -0.34,0 -0.6,-0.14 -0.6,-0.39 0,-0.41 0.4,-0.57 1.25,-0.57 3.29,0 7.12,0.16 7.88,0.16 0.79,0 3.79,-0.16 5.37,-0.16 0.67,0 1.06,0.16 1.06,0.57 0,0.25 -0.2,0.39 -0.65,0.39 l -0.73,0 c -1.18,0 -2.61,0.58 -2.61,2.03 0,1.27 0.34,2.91 0.96,4.63 l 4.16,12.28 c 0.13,0.37 0.35,0.57 0.68,0.57 l 14.94,0 c 0.33,0 0.45,-0.14 0.59,-0.43 l 6.5,-17.05 c 0.36,-1.15 0,-1.78 -0.46,-1.92 -0.24,-0.05 -0.47,-0.15 -0.47,-0.47 0,-0.44 0.8,-0.44 2.08,-0.44 4.78,-0.16 9.82,-0.16 10.89,-0.16 0.79,0 1.38,0.16 1.38,0.57 0,0.35 -0.27,0.39 -0.67,0.39 -0.71,0 -1.78,0.06 -2.76,0.43 -1.49,0.43 -3.5,1.5 -6,7.75 -4.22,10.47 -15.1,39.14 -16.12,41.76 -0.82,2.15 -1.09,2.48 -1.53,2.48 -0.45,0 -0.75,-0.41 -1.54,-2.72 z m 9.7,15.33 c -0.18,0 -0.34,0.15 -0.18,0.47 l 6.07,18.75 c 0.37,1.05 0.7,1.05 1.1,0 l 6.52,-18.75 c 0.14,-0.26 0.14,-0.47 -0.26,-0.47 z m -0.04,39.69 c -0.43,0 -0.76,-0.1 -0.82,-0.43 l -0.59,-1.72 c -0.07,-0.45 0.2,-0.53 0.68,-0.53 l 17.58,0 c 0.39,0 0.66,0.2 0.66,0.39 l 0.65,1.58 c 0.14,0.34 0,0.71 -0.65,0.71 l -17.51,0"
             inkscape:connector-curvature="0" /><path
             id="path46"
             style="fill:#ffffff;fill-opacity:1;fill-rule:nonzero;stroke:none"
             d="m 1998.69,1672.28 8.67,-0.13 c 6.69,-0.14 8.3,-1.72 8.58,-3.81 l 0.08,-0.74 c 0.03,-0.98 0.17,-1.18 0.56,-1.18 0.28,0 0.47,0.26 0.47,0.92 0,0.78 0.2,5.51 0.2,7.64 0,0.35 0,0.8 -0.34,0.8 -0.58,0 -2.43,-0.66 -6.85,-0.66 l -26.04,0 c -0.83,0 -3.43,0.13 -5.47,0.33 -1.88,0.13 -2.58,0.8 -3.04,0.8 -0.26,0 -0.56,-0.92 -0.69,-1.27 -0.13,-0.59 -1.51,-6.52 -1.51,-7.25 0,-0.39 0.13,-0.62 0.32,-0.62 0.27,0 0.43,0.13 0.7,0.68 0.19,0.51 0.39,0.96 1.18,2.19 1.11,1.64 2.77,2.11 7.06,2.17 l 10.28,0.13 0,-29.33 c 0,-6.6 0,-12.13 -0.39,-15.04 -0.27,-2.01 -0.6,-3.54 -1.98,-3.83 -0.63,-0.14 -1.46,-0.25 -2.11,-0.25 -0.4,0 -0.53,-0.2 -0.53,-0.39 0,-0.41 0.36,-0.57 1.09,-0.57 2.14,0 6.5,0.16 6.82,0.16 0.36,0 4.75,-0.16 8.55,-0.16 0.74,0 1.08,0.16 1.08,0.57 0,0.19 -0.13,0.39 -0.54,0.39 -0.64,0 -2.16,0.11 -3.12,0.25 -2.07,0.29 -2.46,1.82 -2.74,3.83 -0.29,2.91 -0.29,8.44 -0.29,15.04 l 0,29.33"
             inkscape:connector-curvature="0" /><path
             id="path48"
             style="fill:#ffffff;fill-opacity:1;fill-rule:nonzero;stroke:none"
             d="m 2028.52,1642.95 c 0,-6.6 0,-12.13 -0.33,-15.04 -0.26,-2.01 -0.61,-3.54 -2.01,-3.83 -0.59,-0.14 -1.41,-0.25 -2.08,-0.25 -0.39,0 -0.53,-0.2 -0.53,-0.39 0,-0.41 0.34,-0.57 1.1,-0.57 2.07,0 6.42,0.16 6.81,0.16 2.02,0 6.66,-0.39 17.08,-0.39 2.71,0 3.31,0 3.76,1.77 0.34,1.49 0.89,6.23 0.89,6.8 0,0.49 0,1.05 -0.43,1.05 -0.3,0 -0.46,-0.25 -0.59,-1.05 -0.49,-2.87 -1.31,-4.26 -3.1,-5.02 -1.79,-0.78 -4.84,-0.78 -6.65,-0.78 -6.83,0 -7.86,0.92 -8.05,5.66 -0.06,1.53 0,9.57 0,11.88 l 0,6.13 c 0,0.25 0.16,0.53 0.47,0.53 1.2,0 8.07,-0.2 9.88,-0.39 2.78,-0.28 3.37,-1.47 3.62,-2.44 0.3,-0.86 0.3,-1.57 0.3,-2.25 0,-0.37 0.17,-0.66 0.47,-0.66 0.5,0 0.5,0.8 0.5,1.34 0,0.47 0.13,3.03 0.28,4.44 0.23,2.26 0.57,3.43 0.57,3.84 0,0.47 -0.14,0.59 -0.34,0.59 -0.26,0 -0.59,-0.35 -1.05,-0.92 -0.66,-0.64 -1.57,-0.82 -3.29,-0.95 -1.55,-0.14 -10.1,-0.14 -11.01,-0.14 -0.34,0 -0.4,0.17 -0.4,0.7 l 0,19.12 c 0,0.53 0.16,0.69 0.4,0.69 0.79,0 8.32,-0.02 9.49,-0.16 3.76,-0.47 4.49,-1.27 4.95,-2.4 0.32,-0.82 0.4,-2.03 0.4,-2.48 0,-0.61 0.13,-0.92 0.55,-0.92 0.3,0 0.43,0.45 0.49,0.78 0.13,0.8 0.31,3.83 0.4,4.55 0.16,1.99 0.52,2.77 0.52,3.3 0,0.33 -0.05,0.59 -0.32,0.59 -0.29,0 -0.6,-0.26 -0.93,-0.33 -0.58,-0.18 -1.68,-0.26 -3.04,-0.36 -1.54,-0.03 -15.33,-0.03 -15.82,-0.03 -0.39,0 -4.74,0.17 -7.87,0.17 -0.76,0 -1.09,-0.14 -1.09,-0.57 0,-0.25 0.29,-0.39 0.59,-0.39 0.6,0 1.78,-0.07 2.32,-0.21 2.27,-0.49 2.83,-1.56 3.03,-3.95 0.06,-2.24 0.06,-4.16 0.06,-14.96 l 0,-12.26"
             inkscape:connector-curvature="0" /><path
             id="path50"
             style="fill:#ffffff;fill-opacity:1;fill-rule:evenodd;stroke:none"
             d="m 1552.98,1732.42 c 0,-8.58 0,-15.63 -0.46,-19.34 -0.35,-2.55 -0.82,-4.53 -2.57,-4.86 -0.83,-0.2 -1.88,-0.39 -2.67,-0.39 -0.56,0 -0.72,-0.28 -0.72,-0.53 0,-0.54 0.46,-0.7 1.42,-0.7 2.66,0 8.27,0.23 8.37,0.23 0.43,0 6.07,-0.23 10.91,-0.23 1.05,0 1.45,0.23 1.45,0.7 0,0.25 -0.19,0.53 -0.69,0.53 -0.83,0 -2.75,0.19 -3.99,0.39 -2.71,0.33 -3.24,2.31 -3.48,4.86 -0.48,3.71 -0.48,10.76 -0.48,19.34 l 0,2.1 c 0,0.46 0.2,0.73 0.65,0.73 l 10.92,-0.2 c 0.57,0 0.79,-0.15 1.15,-0.53 1.78,-2.31 5.94,-8.3 9.7,-13.15 5.08,-6.69 8.17,-11.04 12,-13.09 2.31,-1.26 4.54,-1.68 9.53,-1.68 l 6.35,0 c 1.56,0 2.11,0.16 2.11,0.7 0,0.25 -0.39,0.53 -0.78,0.53 -0.53,0 -1.78,0 -3.5,0.29 -2.2,0.32 -5.99,1.35 -10.85,6.39 -5.16,5.5 -11.24,13.41 -18.52,22.78 8.05,7.38 10.78,13.97 10.78,20.56 0,6.15 -3.89,10.5 -6.13,12.08 -4.75,3.38 -10.69,3.92 -16.29,3.92 -2.77,0 -9.53,-0.3 -10.49,-0.3 -0.45,0 -6.06,0.3 -10.08,0.3 -0.96,0 -1.41,-0.17 -1.41,-0.69 0,-0.4 0.36,-0.53 0.76,-0.53 0.75,0 2.3,-0.14 2.96,-0.26 2.96,-0.66 3.69,-2.05 3.88,-5.07 0.17,-2.88 0.17,-5.38 0.17,-19.27 z m 7.09,36.98 c 0,0.53 0.33,0.92 0.72,1.04 0.85,0.32 3.29,0.55 5.95,0.55 9.55,0 15.42,-6.66 15.42,-17.81 0,-6.72 -2.31,-11.54 -5.48,-13.67 -2.04,-1.43 -4.47,-1.68 -6.66,-1.68 -3.89,0 -7.97,0.62 -9.3,1.44 -0.45,0.24 -0.65,0.59 -0.65,1.06 l 0,29.07"
             inkscape:connector-curvature="0" /><path
             id="path52"
             style="fill:#ffffff;fill-opacity:1;fill-rule:evenodd;stroke:none"
             d="m 1617.3,1738.94 c 0,10.86 0,12.79 0.13,15 0.14,2.44 0.73,3.59 2.57,3.95 0.86,0.14 1.25,0.23 1.78,0.23 0.27,0 0.52,0.14 0.52,0.4 0,0.43 -0.36,0.54 -1.11,0.54 -2.11,0 -6.46,-0.18 -6.8,-0.18 -0.32,0 -4.74,0.18 -7.01,0.18 -0.76,0 -1.09,-0.11 -1.09,-0.54 0,-0.26 0.26,-0.4 0.53,-0.4 0.52,0 1.44,-0.09 2.16,-0.27 1.53,-0.38 2.23,-1.53 2.36,-3.91 0.12,-2.21 0.12,-4.14 0.12,-15 l 0,-12.19 c 0,-6.66 0,-12.14 -0.29,-15.04 -0.29,-2.05 -0.66,-3.55 -2.05,-3.83 -0.58,-0.13 -1.44,-0.25 -2.08,-0.25 -0.42,0 -0.56,-0.2 -0.56,-0.43 0,-0.43 0.34,-0.57 1.12,-0.57 2.05,0 6.47,0.2 6.79,0.2 0.34,0 4.69,-0.2 8.52,-0.2 0.78,0 1.18,0.2 1.18,0.57 0,0.23 -0.19,0.43 -0.62,0.43 -0.6,0 -2.14,0.12 -3.14,0.25 -2.04,0.28 -2.46,1.78 -2.63,3.83 -0.4,2.9 -0.4,8.38 -0.4,15.04 z m -10.35,30.33 c -0.4,0 -0.66,-0.06 -0.73,-0.43 l -0.52,-1.75 c -0.13,-0.4 0.16,-0.46 0.66,-0.46 l 16.28,0 c 0.37,0 0.56,0.14 0.66,0.43 l 0.53,1.55 c 0.13,0.33 0,0.66 -0.53,0.66 l -16.35,0"
             inkscape:connector-curvature="0" /><path
             id="path54"
             style="fill:#ffffff;fill-opacity:1;fill-rule:nonzero;stroke:none"
             d="m 1669.65,1712.53 c 0,-1.15 -0.53,-1.95 -1.45,-2.44 -1.77,-1.01 -5.38,-1.48 -7.91,-1.48 -6.4,0 -12.65,2.11 -18.14,7.46 -2.42,2.37 -7.38,9.41 -7.38,19.25 0,8.11 2.88,14.36 6.86,17.6 5.28,4.14 10.48,4.55 14.83,4.55 8.97,0 14.61,-2.96 16.29,-5.61 1.06,-1.65 1.45,-3.59 1.48,-4.54 0.11,-0.67 0.16,-1.06 0.5,-1.06 0.52,0 0.59,0.33 0.59,1.45 0,6.91 0.52,8.87 0.52,9.82 0,0.32 -0.13,0.59 -0.82,0.66 -1.74,0.07 -4.18,0.33 -5.64,0.69 -1.31,0.29 -6.22,1.16 -10.61,1.16 -5.34,0 -12.15,-0.5 -18.44,-4.34 -6.15,-3.9 -11.56,-11.74 -11.56,-22.84 0,-8.69 3.99,-16.07 8.24,-19.78 7.72,-6.7 17.54,-7.4 22.78,-7.4 4.06,0 10.33,0.76 14.74,3.13 0.79,0.46 0.92,0.6 0.92,3.72 l 0,7.76 c 0,2.95 0,5 0.14,7.24 0.12,2.41 0.65,3.59 2.56,3.97 0.8,0.12 1.26,0.19 1.71,0.19 0.28,0 0.61,0.13 0.61,0.39 0,0.43 -0.41,0.57 -1.12,0.57 -2.11,0 -6.5,-0.2 -6.8,-0.2 -0.39,0 -4.74,0.2 -7.88,0.2 -0.78,0 -1.08,-0.14 -1.08,-0.57 0,-0.26 0.26,-0.39 0.53,-0.39 0.59,0 1.84,-0.07 2.36,-0.19 2.78,-0.8 3.17,-1.56 3.17,-7.12 l 0,-11.85"
             inkscape:connector-curvature="0" /><path
             id="path56"
             style="fill:#ffffff;fill-opacity:1;fill-rule:evenodd;stroke:none"
             d="m 1686.7,1714.28 c -1.19,-3.43 -2.61,-6.12 -5.77,-6.53 -0.6,-0.06 -1.52,-0.12 -1.98,-0.12 -0.4,0 -0.66,-0.14 -0.66,-0.43 0,-0.44 0.4,-0.57 1.28,-0.57 3.26,0 7.09,0.2 7.88,0.2 0.77,0 3.7,-0.2 5.34,-0.2 0.66,0 1.06,0.13 1.06,0.57 0,0.29 -0.17,0.43 -0.66,0.43 l -0.69,0 c -1.22,0 -2.6,0.64 -2.6,1.99 0,1.27 0.29,2.91 0.92,4.66 l 4.15,12.27 c 0.13,0.32 0.4,0.55 0.69,0.55 l 14.91,0 c 0.35,0 0.48,-0.13 0.62,-0.43 l 6.47,-17.05 c 0.45,-1.07 0,-1.74 -0.43,-1.87 -0.27,-0.06 -0.43,-0.2 -0.43,-0.53 0,-0.39 0.72,-0.39 2.04,-0.46 4.77,-0.13 9.82,-0.13 10.88,-0.13 0.75,0 1.37,0.13 1.37,0.57 0,0.35 -0.25,0.43 -0.64,0.43 -0.73,0 -1.79,0.06 -2.84,0.39 -1.42,0.42 -3.43,1.51 -5.94,7.69 -4.21,10.57 -15.1,39.19 -16.15,41.82 -0.86,2.17 -1.07,2.51 -1.52,2.51 -0.43,0 -0.72,-0.4 -1.51,-2.7 z m 9.76,15.29 c -0.24,0 -0.37,0.15 -0.24,0.54 l 6.12,18.72 c 0.35,1.02 0.67,1.02 1.08,0 l 6.54,-18.72 c 0.12,-0.27 0.12,-0.54 -0.29,-0.54 l -13.21,0"
             inkscape:connector-curvature="0" /><path
             id="path58"
             style="fill:#ffffff;fill-opacity:1;fill-rule:nonzero;stroke:none"
             d="m 1741.25,1705.68 c 3.69,0 7.46,0.82 10.49,2.89 4.74,3.4 5.87,8.68 5.87,11.52 0,5.53 -1.93,9.85 -10.13,16.27 l -1.95,1.56 c -6.52,5.37 -8.44,7.68 -8.44,11.63 0,5.07 3.75,8.05 8.52,8.05 6.4,0 8.27,-2.9 8.7,-3.66 0.32,-0.76 0.8,-2.62 0.87,-3.46 0.05,-0.53 0.11,-0.93 0.5,-0.93 0.4,0 0.54,0.5 0.54,1.58 0,4.76 0.26,7.06 0.26,7.39 0,0.37 -0.13,0.47 -0.66,0.47 -0.59,0 -1.19,0.07 -2.44,0.36 -1.78,0.43 -3.78,0.69 -6.46,0.69 -8.83,0 -14.34,-5.09 -14.34,-12.5 0,-4.68 1.68,-8.99 9,-15.03 l 3.17,-2.57 c 5.93,-4.91 7.91,-7.68 7.91,-12.5 0,-4.41 -3.23,-9.16 -9.89,-9.16 -4.68,0 -9.23,1.91 -10.29,7.07 -0.19,0.97 -0.19,1.9 -0.19,2.53 0,0.56 -0.07,0.75 -0.46,0.75 -0.34,0 -0.53,-0.34 -0.6,-1.1 0,-1.07 -0.33,-3.9 -0.33,-7.34 0,-1.91 0.08,-2.17 1.05,-2.64 2.84,-1.37 6,-1.87 9.3,-1.87"
             inkscape:connector-curvature="0" /><path
             id="path60"
             style="fill:#ffffff;fill-opacity:1;fill-rule:nonzero;stroke:none"
             d="m 1800.26,1705.38 c 4.82,0 9.56,1.06 13.45,3.7 6.1,4.38 7.52,11.14 7.52,14.76 0,7.12 -2.46,12.66 -12.96,20.9 l -2.47,1.98 c -8.37,6.86 -10.91,9.86 -10.91,14.97 0,6.45 4.86,10.28 10.95,10.28 8.2,0 10.64,-3.7 11.1,-4.67 0.6,-1 1.13,-3.41 1.22,-4.49 0.04,-0.73 0.13,-1.12 0.69,-1.12 0.47,0 0.66,0.59 0.66,2.03 0,6.04 0.3,8.98 0.3,9.44 0,0.41 -0.16,0.58 -0.88,0.58 -0.73,0 -1.39,0.11 -3.11,0.47 -2.22,0.53 -4.8,0.92 -8.24,0.92 -11.34,0 -18.46,-6.52 -18.46,-16.05 0,-6.06 2.15,-11.57 11.56,-19.28 l 4.01,-3.3 c 7.67,-6.33 10.24,-9.89 10.24,-16.02 0,-5.68 -4.18,-11.87 -12.72,-11.87 -5.97,0 -11.84,2.5 -13.15,9.1 -0.27,1.26 -0.27,2.51 -0.27,3.3 0,0.73 -0.1,0.95 -0.6,0.95 -0.46,0 -0.65,-0.42 -0.76,-1.42 -0.09,-1.39 -0.46,-4.97 -0.46,-9.43 0,-2.39 0.1,-2.7 1.4,-3.35 3.62,-1.79 7.74,-2.38 11.89,-2.38"
             inkscape:connector-curvature="0" /><path
             id="path62"
             style="fill:#ffffff;fill-opacity:1;fill-rule:nonzero;stroke:none"
             d="m 1847.4,1756.07 8.73,-0.12 c 6.66,-0.14 8.23,-1.72 8.52,-3.82 l 0.1,-0.73 c 0.04,-1 0.19,-1.19 0.52,-1.19 0.3,0 0.46,0.27 0.46,0.86 0,0.79 0.27,5.6 0.27,7.68 0,0.42 0,0.79 -0.39,0.79 -0.53,0 -2.45,-0.66 -6.86,-0.66 l -26.01,0 c -0.83,0 -3.46,0.11 -5.47,0.29 -1.9,0.18 -2.58,0.87 -3.07,0.87 -0.27,0 -0.53,-0.87 -0.66,-1.29 -0.14,-0.56 -1.52,-6.56 -1.52,-7.22 0,-0.46 0.13,-0.66 0.33,-0.66 0.27,0 0.49,0.13 0.66,0.73 0.27,0.46 0.47,0.96 1.19,2.11 1.11,1.71 2.76,2.18 7.13,2.24 l 10.24,0.12 0,-29.32 c 0,-6.66 0,-12.14 -0.36,-15.04 -0.27,-2.05 -0.6,-3.55 -1.99,-3.83 -0.65,-0.13 -1.47,-0.25 -2.1,-0.25 -0.43,0 -0.56,-0.2 -0.56,-0.43 0,-0.44 0.35,-0.57 1.15,-0.57 2.02,0 6.43,0.2 6.72,0.2 0.41,0 4.75,-0.2 8.58,-0.2 0.72,0 1.11,0.2 1.11,0.57 0,0.23 -0.12,0.43 -0.55,0.43 -0.63,0 -2.14,0.12 -3.14,0.25 -2.04,0.28 -2.5,1.78 -2.7,3.83 -0.33,2.9 -0.33,8.38 -0.33,15.04 l 0,29.32"
             inkscape:connector-curvature="0" /><path
             id="path64"
             style="fill:#ffffff;fill-opacity:1;fill-rule:evenodd;stroke:none"
             d="m 1893.98,1730.58 c 5.47,-6.97 9.99,-12.89 13.88,-17.16 0,0 3.37,-3.88 4.48,-4.07 0,0 0.14,0 0.2,0.06 1.82,-1.13 3.34,-1.43 4.35,-1.58 1.25,-0.2 2.31,-0.2 2.64,-0.2 0.39,0 0.67,-0.2 0.67,-0.43 0,-0.44 -0.4,-0.57 -1.66,-0.57 l -4.93,0 c -3.9,0 -5.62,0.39 -7.4,1.35 -2.97,1.56 -5.39,4.98 -9.35,10.2 -2.91,3.78 -6.21,8.42 -7.58,10.27 -0.28,0.2 -0.46,0.4 -0.9,0.4 l -8.54,0.13 c -0.32,0 -0.46,-0.2 -0.46,-0.53 l 0,-1.7 c 0,-6.66 0,-12.14 0.3,-15.04 0.22,-2.05 0.63,-3.55 2.73,-3.83 0.93,-0.13 2.51,-0.25 3.1,-0.25 0.43,0 0.56,-0.2 0.56,-0.43 0,-0.37 -0.29,-0.57 -1.09,-0.57 -3.83,0 -8.16,0.2 -8.5,0.2 -0.13,0 -4.49,-0.2 -6.53,-0.2 -0.79,0 -1.11,0.13 -1.11,0.57 0,0.23 0.06,0.43 0.52,0.43 0.62,0 1.45,0.12 2.1,0.25 1.39,0.28 1.72,1.78 2.02,3.83 0.3,2.9 0.3,8.38 0.3,15.04 l 0,12.19 c 0,10.84 0,12.79 -0.13,15 -0.13,2.38 -0.66,3.46 -2.97,3.95 -0.52,0.14 -1.78,0.23 -2.38,0.23 -0.25,0 -0.53,0.14 -0.53,0.4 0,0.44 0.34,0.54 1.13,0.54 3.09,0 7.45,-0.17 7.85,-0.17 0.71,0 5.99,0.17 8.17,0.17 4.36,0 9.03,-0.39 12.7,-3.04 1.68,-1.22 4.74,-4.62 4.74,-9.43 0,-5.15 -2.15,-10.25 -8.38,-16.01 m -14.6,25.04 c 0,0.4 0.17,0.7 0.52,0.82 0.71,0.23 2.58,0.43 4.65,0.43 7.46,0 12.01,-5.21 12.01,-13.91 0,-5.27 -1.81,-8.96 -4.26,-10.64 -1.58,-1.1 -3.48,-1.31 -5.19,-1.31 -3.01,0 -6.21,0.49 -7.27,1.07 -0.32,0.24 -0.46,0.5 -0.46,0.86 l 0,22.68"
             inkscape:connector-curvature="0" /><path
             id="path66"
             style="fill:#ffffff;fill-opacity:1;fill-rule:evenodd;stroke:none"
             d="m 1912.62,1709.41 c 0.78,0.39 1.64,2.37 2.11,3.67 0.13,0.38 0.32,0.82 0.46,1.2 l 15.72,43.06 c 0.82,2.3 1.16,2.7 1.51,2.7 0.47,0 0.76,-0.34 1.55,-2.51 1.03,-2.63 11.93,-31.25 16.17,-41.82 2.5,-6.17 4.47,-7.27 5.99,-7.69 1.06,-0.33 2.04,-0.39 2.73,-0.39 0.44,0 0.77,-0.08 0.77,-0.43 0,-0.44 -0.67,-0.57 -1.46,-0.57 -0.98,0 -6.14,0 -10.88,0.13 -1.31,0.07 -2.08,0.07 -2.08,0.46 0,0.33 0.18,0.47 0.5,0.53 0.39,0.13 0.82,0.8 0.39,1.87 l -6.45,17.05 c -0.1,0.31 -0.27,0.43 -0.6,0.43 l -14.97,0 c -0.29,0 -0.52,-0.23 -0.62,-0.55 l -4.19,-12.27 c -0.59,-1.75 -0.95,-3.39 -0.95,-4.66 0,-1.34 1.48,-1.99 2.6,-1.99 l 0.7,0 c 0.49,0 0.68,-0.14 0.68,-0.43 0,-0.44 -0.37,-0.57 -0.99,-0.57 -1.67,0 -4.68,0.2 -5.43,0.2 -0.76,0 -7.09,0.86 -6.52,0.92 1.34,0.19 2.4,0.8 3.26,1.66 m 12.24,20.16 c -0.18,0 -0.32,0.15 -0.18,0.54 l 6.12,18.72 c 0.33,1.02 0.66,1.02 1.03,0 l 6.63,-18.72 c 0.04,-0.27 0.04,-0.54 -0.28,-0.54 l -13.32,0"
             inkscape:connector-curvature="0" /><path
             id="path68"
             style="fill:#ffffff;fill-opacity:1;fill-rule:evenodd;stroke:none"
             d="m 1962.79,1726.75 c 0,-6.66 0,-12.14 -0.4,-15.04 -0.25,-2.05 -0.59,-3.55 -1.97,-3.83 -0.63,-0.13 -1.46,-0.25 -2.12,-0.25 -0.39,0 -0.53,-0.2 -0.53,-0.43 0,-0.44 0.34,-0.57 1.09,-0.57 2.08,0 6.43,0.2 6.83,0.2 0.66,0 9.43,-0.82 15.36,-0.82 11.81,0 18.06,4.88 21.04,8.01 3.89,4.09 7.5,10.82 7.5,19.51 0,8.3 -3.28,14.01 -6.79,17.6 -8.19,8.57 -20.9,7.93 -27.82,7.93 -4.12,0 -8.5,-0.17 -9.29,-0.17 -0.4,0 -4.75,0.17 -7.84,0.17 -0.8,0 -1.09,-0.1 -1.09,-0.54 0,-0.26 0.23,-0.4 0.49,-0.4 0.66,0 1.85,-0.09 2.38,-0.23 2.3,-0.49 2.85,-1.57 2.95,-3.95 0.21,-2.21 0.21,-4.14 0.21,-15 z m 5.8,13.3 c 0,5.35 0,12.44 0.06,14.81 0,0.76 0.24,1.09 0.82,1.39 0.57,0.23 3.15,0.48 4.51,0.48 8.29,0 16.2,-0.98 22.69,-7.84 2.84,-2.96 6.67,-8.69 6.67,-17.47 0,-6.39 -1.95,-13.05 -5.55,-16.62 -4.12,-4.08 -10.05,-6.39 -16.54,-6.39 -8.18,0 -10.85,1.39 -11.78,2.74 -0.54,0.76 -0.68,3.53 -0.74,5.31 -0.08,1.25 -0.14,7.64 -0.14,15.03 l 0,8.56"
             inkscape:connector-curvature="0" /><path
             id="path70"
             style="fill:#ffffff;fill-opacity:1;fill-rule:nonzero;stroke:none"
             d="m 2027.27,1738.94 c 0,10.86 0,12.79 0.13,15 0.16,2.44 0.73,3.59 2.56,3.95 0.88,0.14 1.27,0.23 1.72,0.23 0.29,0 0.57,0.14 0.57,0.4 0,0.43 -0.3,0.54 -1.06,0.54 -2.11,0 -6.49,-0.18 -6.85,-0.18 -0.3,0 -4.69,0.18 -7,0.18 -0.72,0 -1.08,-0.11 -1.08,-0.54 0,-0.26 0.26,-0.4 0.53,-0.4 0.52,0 1.37,-0.09 2.17,-0.27 1.52,-0.38 2.21,-1.53 2.34,-3.91 0.16,-2.21 0.16,-4.14 0.16,-15 l 0,-12.19 c 0,-6.66 0,-12.14 -0.33,-15.04 -0.29,-2.05 -0.65,-3.55 -2.03,-3.83 -0.66,-0.13 -1.46,-0.25 -2.05,-0.25 -0.43,0 -0.6,-0.2 -0.6,-0.43 0,-0.43 0.34,-0.57 1.13,-0.57 2.07,0 6.46,0.2 6.76,0.2 0.36,0 4.74,-0.2 8.54,-0.2 0.79,0 1.1,0.2 1.1,0.57 0,0.23 -0.11,0.43 -0.52,0.43 -0.58,0 -2.17,0.12 -3.15,0.25 -2.05,0.28 -2.45,1.78 -2.71,3.83 -0.33,2.9 -0.33,8.38 -0.33,15.04 l 0,12.19"
             inkscape:connector-curvature="0" /><path
             id="path72"
             style="fill:#ffffff;fill-opacity:1;fill-rule:nonzero;stroke:none"
             d="m 2049.69,1749.29 c 2.17,-2.5 10.09,-11.24 18.12,-19.9 7.33,-7.88 17.31,-18.08 18.11,-18.81 3.62,-3.65 4.51,-4.4 5.04,-4.4 0.47,0 0.58,0.32 0.58,4.87 l 0.14,40.68 c 0,4.16 0.29,5.67 2.62,6.16 0.81,0.23 1.31,0.23 1.64,0.23 0.49,0 0.76,0.21 0.76,0.47 0,0.4 -0.47,0.47 -1.22,0.47 -2.9,0 -5.15,-0.18 -5.94,-0.18 -0.77,0 -4.09,0.18 -7.22,0.18 -0.83,0 -1.38,-0.07 -1.38,-0.47 0,-0.26 0.1,-0.47 0.55,-0.47 0.57,0 2.15,-0.09 3.39,-0.35 2.19,-0.56 2.65,-2.07 2.72,-6.62 l 0.8,-35.23 c -2.25,2.32 -9.79,10.75 -16.7,18.11 -10.68,11.43 -20.96,22.64 -22.01,23.82 -0.71,0.67 -1.92,2.19 -2.44,2.19 -0.56,0 -0.73,-0.77 -0.73,-3.46 l -0.1,-39.73 c 0,-6.32 -0.34,-8.3 -2.06,-8.83 -1,-0.33 -2.33,-0.39 -2.85,-0.39 -0.4,0 -0.57,-0.14 -0.57,-0.43 0,-0.47 0.45,-0.57 1.09,-0.57 3.15,0 6.08,0.2 6.66,0.2 0.61,0 3.43,-0.2 7.39,-0.2 0.81,0 1.25,0.13 1.25,0.57 0,0.29 -0.2,0.43 -0.59,0.43 -0.63,0 -2.14,0.06 -3.49,0.39 -1.82,0.55 -2.51,2.36 -2.64,8.05 l -0.92,33.22"
             inkscape:connector-curvature="0" /><path
             id="path74"
             style="fill:#ffffff;fill-opacity:1;fill-rule:evenodd;stroke:none"
             d="m 2104.67,1714.28 c -1.25,-3.43 -2.64,-6.12 -5.82,-6.53 -0.57,-0.06 -1.53,-0.12 -2.03,-0.12 -0.33,0 -0.59,-0.14 -0.59,-0.43 0,-0.44 0.39,-0.57 1.32,-0.57 3.27,0 7.02,0.2 7.82,0.2 0.74,0 3.72,-0.2 5.43,-0.2 0.61,0 0.99,0.13 0.99,0.57 0,0.29 -0.19,0.43 -0.66,0.43 l -0.73,0 c -1.18,0 -2.6,0.64 -2.6,1.99 0,1.27 0.31,2.91 0.96,4.66 l 4.19,12.27 c 0.1,0.32 0.33,0.55 0.62,0.55 l 14.97,0 c 0.33,0 0.46,-0.13 0.6,-0.43 l 6.45,-17.05 c 0.46,-1.07 0,-1.74 -0.42,-1.87 -0.23,-0.06 -0.46,-0.2 -0.46,-0.53 0,-0.39 0.71,-0.39 2.07,-0.46 4.74,-0.13 9.84,-0.13 10.88,-0.13 0.8,0 1.38,0.13 1.38,0.57 0,0.35 -0.23,0.43 -0.69,0.43 -0.69,0 -1.73,0.06 -2.73,0.39 -1.49,0.42 -3.49,1.51 -5.99,7.69 -4.24,10.57 -15.14,39.19 -16.16,41.82 -0.8,2.17 -1.09,2.51 -1.54,2.51 -0.45,0 -0.71,-0.4 -1.53,-2.7 z m 9.71,15.29 c -0.22,0 -0.35,0.15 -0.22,0.54 l 6.11,18.72 c 0.36,1.02 0.69,1.02 1.06,0 l 6.56,-18.72 c 0.09,-0.27 0.09,-0.54 -0.27,-0.54 l -13.24,0"
             inkscape:connector-curvature="0" /><path
             id="path76"
             style="fill:#ffffff;fill-opacity:1;fill-rule:nonzero;stroke:none"
             d="m 2066.77,1707.02 c 0.46,-2.5 0.98,-4.95 0.98,-7.45 0,-2.62 -0.98,-4.81 -0.98,-5.14 0,-0.33 0.25,-0.46 0.57,-0.46 0.41,0 1.6,0.93 3.21,4.29 0.89,1.91 1.55,5.74 1.55,7.18 l 0,1.58 c 0,0 0.07,0.53 -0.52,0.53 l -4.2,0 c -0.68,0 -0.61,-0.53 -0.61,-0.53"
             inkscape:connector-curvature="0" /></g></g></g></g><rect
     style="opacity:0;fill:#ffffff;stroke:#ffffff"
     id="rect4167"
     width="56.933559"
     height="18.977854"
     x="169.11909"
     y="215.24248"
     clip-path="url(#clipPath4177)"
     transform="translate(-169.86543,-216.41451)" /><rect
     style="opacity:0;fill:#ffffff;stroke:#ffffff"
     id="rect4169"
     width="117.71072"
     height="20.51622"
     x="168.63864"
     y="216.58684"
     clip-path="url(#clipPath4173)"
     transform="translate(-169.86543,-216.41451)" /></svg>